<svg xmlns:svg="http://www.w3.org/2000/svg" xmlns="http://www.w3.org/2000/svg" version="1.1" width="260.1" height="46.2" viewBox="0 0 260.1 46.2"><path d="m94 45.9c-1-0.2-2.2-0.4-2.7-0.6-0.5-0.2-1-0.4-1.2-0.4-0.2 0-0.6-0.3-0.9-0.6-0.3-0.3-0.7-0.5-0.8-0.5-0.5 0-2.5-2.2-3.7-4-3.2-4.8-2.7-13.8 1-19.5 2.9-4.5 7-7 12.9-7.8 2.7-0.4 6.7 0 9 0.8 5.4 1.9 9.2 8.7 8.5 15.3-0.9 8-5 13.8-11.7 16.4-2.3 0.9-7.3 1.3-10.3 0.8zm7.7-9.7c2.9-2.8 4.4-10.8 2.4-13.5-1.4-2-4.3-2.5-6.5-1.1-2.1 1.3-4 5.7-4 9.6 0 1.9 0.1 2.5 0.8 3.8 0.4 0.8 1.1 1.7 1.5 1.9 1.8 1.1 4.3 0.8 5.8-0.7zm80.9 9.7c-3-0.5-3.6-0.7-5.3-1.4-3.5-1.6-6.5-6-7.2-10.7-0.6-3.9 0.4-9 2.5-12.6 1.9-3.2 5.9-6.7 9.1-7.8 4.7-1.7 11.8-1.4 15.8 0.7 2.3 1.1 3.9 2.9 5.2 5.6 0.9 1.9 1.1 2.6 1.2 4.8 0.1 1.4 0 3.8-0.2 5.2l-0.4 2.6-11.2 0-11.2 0 0.2 0.8c0.7 3.3 1.3 4.2 2.8 5 1.1 0.6 3.7 0.6 4.9 0 0.5-0.3 1.3-0.9 1.8-1.4l0.9-0.9 5.3 0.5c2.9 0.3 5.3 0.6 5.4 0.6 0.3 0.3-1.7 3.2-3.2 4.6-1.8 1.8-4.9 3.3-7.5 3.9-2.2 0.5-7.1 0.6-8.9 0.3zm10.4-21.3c0-3.2-1.5-4.8-4.4-4.8-2.9 0-5.1 2.1-6.3 5.9l-0.2 0.7 5.4 0 5.4 0 0-1.8zM0.2 44.8C0.3 44.5 2.2 34.5 4.5 22.7 6.8 10.8 8.8 1 8.8 1c0 0 2.9-0.1 6.4 0L21.5 1.1 17.4 22.2c-2.3 11.6-4.2 21.6-4.3 22.1l-0.2 1-6.4 0c-6 0-6.4 0-6.3-0.5zm24-15.1C25.9 21 27.3 13.8 27.3 13.6 27.3 13.3 28.6 13.2 32.7 13.2l5.4 0-0.4 1.9c-0.6 2.9-0.6 3 1.3 1.2 5.4-5.1 13.8-5.2 16.5-0.3 1.2 2.2 1.3 4.5 0.3 9.8-1.3 7-3.7 19.2-3.8 19.4-0.1 0.1-2.6 0.1-5.7 0.1l-5.5-0.1 1.7-8.8C45 22.8 45 21.6 42.4 21.6c-1.7 0-2.8 0.6-4 2.1-1.7 2.2-2.4 4.1-4.1 13l-1.7 8.6-5.7 0-5.7 0 3.1-15.7zm36.2 15C60.6 43.7 64.8 22.3 64.8 22.1 64.8 22 63.9 21.9 62.7 21.9l-2.1 0 0.7-3.7c0.4-2 0.8-4 0.9-4.3 0.1-0.6 0.3-0.7 2.2-0.7l2.1 0 0.3-1.7c1.2-6 1.9-7.7 3.8-9.4 1.7-1.4 3.7-2 7.1-1.9 2.8 0 8.4 0.8 8.9 1.3 0.2 0.2-0.9 5.4-1.4 7.1-0.1 0.3-0.5 0.2-1.5-0.1C82 8 80.4 8 79.6 8.6 79.2 8.8 78.7 9.7 78.5 10.6 77.7 13.3 77.6 13.2 80.6 13.2l2.6 0-0.2 1c-0.1 0.5-0.5 2.5-0.8 4.4l-0.6 3.4-2.7 0c-2.5 0-2.7 0-2.8 0.7-0.1 0.4-1 5.3-2.1 11-1.1 5.7-2 10.7-2.1 11-0.2 0.7-0.2 0.7-5.9 0.7l-5.7 0 0.2-0.7zm63.1-2.1c-0.3-1.5-1.5-8.7-2.8-16L118.3 13.2l5.3 0 5.3 0 0.2 1.1c0.1 0.6 0.5 4.8 0.8 9.4 0.3 4.5 0.7 8.5 0.8 8.8 0.2 0.4 1.5-2.2 4.9-9.3l4.7-9.9 6-0.1 6-0.1-9.1 16.1-9.1 16.1-5 0-5 0-0.5-2.8zm27.5 2c0.1-0.5 1.5-7.7 3.1-16l3-15.2 5.7 0 5.7 0-2.6 13.4c-1.5 7.4-2.9 14.6-3.1 16.1l-0.5 2.6-5.7 0-5.7 0 0.2-0.8zm60.4-0.1c-0.1-0.5-0.3-2.3-0.6-3.8l-0.4-2.9 1.9-1.5c2.9-2.3 2.9-2.4 0-2.4l-2.4 0-1.3-9.1C207.9 19.6 207.3 14.9 207.2 14.3l-0.2-1.1 5.1 0 5.1 0 0.2 1.6c0.1 0.9 0.3 5 0.5 9.2 0.2 4.2 0.4 8 0.5 8.3 0.2 0.5 1.2-1.4 5.1-9.2L228.4 13.2l5.2 0 5.2 0 0 0.7c0 0.4 0.3 4.7 0.8 9.5 0.4 4.9 0.8 9 0.8 9.3 0 0.3 1.8-4 4-9.4l4-9.9 5.8-0.1 5.8-0.1-5.1 9.8c-2.8 5.4-6.6 12.6-8.3 16l-3.2 6.2-5.1 0.1-5.1 0.1-0.9-9.3c-0.5-5.1-0.9-9.3-1-9.3-0.1 0-2.3 4.2-4.9 9.2l-4.7 9.2-5.1 0.1-5.1 0.1-0.2-1zM160.1 9.9C158.4 8.9 157.7 7.9 157.6 6.4c-0.3-3.6 3.5-6.8 7.5-6.2 1.4 0.2 3.4 1.9 3.8 3.3 0.5 1.6-0.1 3.9-1.6 5.3-1.8 1.7-5.5 2.3-7.3 1.2z" fill="#233E2C"></path></svg>