<svg xmlns:svg="http://www.w3.org/2000/svg" xmlns="http://www.w3.org/2000/svg" version="1.1" width="1181.2" height="312.4" viewBox="0 0 1181.2 312.4"><path d="M0 156.2 0 0l590.3 0.3 590.3 0.3 0.3 155.9 0.3 155.9-590.6 0-590.6 0zm487.8 52.5c1.7-1.4 8.5-11.1 15-21.6 6.5-10.5 19.8-31.8 29.5-47.5 9.7-15.6 17.7-28.7 17.7-29.1 0-0.4-5-0.7-11.1-0.7l-11.1 0-20.7 34.1c-11.4 18.7-21.4 35-22.3 36.2-1.4 1.9-4.2-2-23.3-34.1l-21.7-36.2-11.1 0c-6.1 0-11.1 0.3-11.1 0.7 0 0.4 2.6 5 5.8 10.3 52.5 86.6 54.9 90.2 59.7 90.2 0.9 0 3.1-1.1 4.9-2.5zM295 208c0-0.4-8-13.7-17.7-29.6-9.7-15.9-21.9-36-27.1-44.6-12.9-21.4-15.8-25-20.3-25-2 0-4.7 1-5.9 2.3-1.7 1.7-55.3 86.5-60.7 96.2-0.7 1.2 4.5 1.6 24.2 1.6l25.1 0 0-9.4 0-9.4-7.5 0c-4.1 0-7.5-0.3-7.5-0.7 0-0.4 7.1-12.4 15.8-26.8l15.8-26.2 7.7 12.8c4.3 7 11.5 19 16 26.5l8.3 13.8-8.1 0.4-8.1 0.4 0 9.6 0 9.6 25-0.4c13.8-0.2 25-0.7 25-1zM75 159.4 75 110l-8.7 0-8.7 0 0 49.4 0 49.4 8.8 0 8.8 0 0-49.4zm74.8 42.8c-4.3-3.6-17.3-14.4-28.8-23.8-11.5-9.5-20.9-17.4-20.9-17.7 0-0.3 12.9-11.5 28.8-25.1 15.8-13.5 28.8-24.8 28.8-25 0-0.3-5.8-0.5-12.8-0.4l-12.8 0-25.8 22.2c-14.2 12.2-26.4 23.4-27.2 25-0.8 1.6-0.9 3.9-0.3 5.5 0.6 1.5 12.5 12.5 26.5 24.3l25.5 21.6 13.5 0.1 13.5 0.1-7.9-6.6zm170.2-34 0-40.6 30.3 0.1c33.6 0.1 40.3 1.2 45.1 7.7 3.7 5 4.1 14.4 0.9 19.5-4.9 7.9-9.7 8.9-40.4 9l-27.2 0 0 8.8 0 8.8 18.5 0 18.5 0 13.7 13.8 13.7 13.8 13.1 0 13.1 0-14-14.1c-7.7-7.7-14-14.4-14-14.8 0-0.4 2.4-1.7 5.3-2.8 6.4-2.4 13.8-9.4 17.5-16.3 3.4-6.4 3.6-22.5 0.4-29.7-4.2-9.4-15.5-17.3-28.3-19.8-3.6-0.7-24.2-1.3-45.8-1.3l-39.2 0 0 49.4 0 49.4 9.4 0 9.4 0 0-40.6zm307.5 24.9 0-15.7 24.1-32.4c13.2-17.8 24.3-32.9 24.5-33.6 0.3-0.8-3.9-1.2-10.8-1.2l-11.2 0-16.7 23.7c-9.2 13-17.1 23.7-17.5 23.8-0.5 0-8.9-10.6-18.7-23.6l-17.9-23.7-11.7-0.1c-9.2-0.1-11.5 0.3-10.5 1.5 0.7 0.9 6.6 8.6 13.1 17.2 6.5 8.6 17.3 22.7 23.9 31.3l12.1 15.6 0 16.6 0 16.6 8.8 0 8.8 0 0-15.7zm70-33.6 0-49.4-5.6 0-5.6 0 0 49.4 0 49.4 5.6 0 5.6 0zm22.5 0 0-49.4-6.9 0-6.9 0 0 49.4 0 49.4 6.9 0 6.9 0zm27.5 0 0-49.4-9.4 0-9.4 0 0 49.4 0 49.4 9.4 0 9.4 0zm381.2 0 0-49.4-185.9 0-185.9 0 0.3 49.4 0.3 49.4 185.6 0 185.6 0zm-120.5 22.8c-7.3-4.2-10.1-10.5-10.1-22.9 0-8.9 0.4-10.7 3.4-15.3 5.5-8.3 14.8-11.7 24.7-9 9.8 2.6 18.6 15 10.7 15-1.9 0-3.3-0.9-3.8-2.5-2.2-7.1-13.7-9.8-21.4-5.1-7.8 4.8-10.3 20.6-4.6 30.1 2.9 4.9 9.5 8 15.1 7.1 5.3-0.9 8.8-3.8 11.1-9.3 1.3-3 2.5-4.1 4.8-4.1 3.6 0 3.5-0.3 1.7 5.1-1.7 5-5.4 9.4-10.1 11.9-5.2 2.7-15.8 2.2-21.5-1.1zm-202-47.2 16.3 0 16.3 0 0 3.1 0 3.1-13.1 0-13.1 0 0 7.5 0 7.5c7.5 0 14.7-0.5 22.2 0.1l-0.1 4.7-21.9 0.3c-0.3 7.3 0.2 15.2-0.1 22.5l-6.3 0C806.5 167.2 806.2 152 806.2 135.1Zm38.8 0 6.2 0 0 48.8-6.2 0zm15 24.3 0-24.5 6.1 0 27.5 38c0 0 0.3-5 0.3-18.3l0-19.6 3.1 0 3.1 0 0 24.4 0 24.4-6.1 0-27.1-38.1-0.3 19.1-0.3 19.1-6.2 0zm43.8 24.5c0-0.5 4-12.5 9-25.4l9.1-23.5 6.7 0 19.2 48.7-6.6-0.2c0 0-3.2-7.5-5.4-13.5-6.8 0.5-20.4 0.3-20.4 0.3l-5.3 14zm21.6-41.2c-3.2 7.2-5.5 13.6-8.4 21.1L933.4 163.8ZM951.2 159.4l0-24.4 6.1 0c0 0 2.2 1.8 13.4 19.1l12.8 19-0.2-19 0.3-19.1 3.1 0 3.1 0 0 24.4 0 24.4-6.3 0C973.8 172.4 970.1 160.5 957.7 145.8l-0.5 19 0 19-3.1 0-3.1 0 0-24.4zm96.2-24.4 33.8 0 0 6.2-27.4 0 0 15 27.3 0.2-0.2 5.2-26.7 0.2c-0.5 5.7-0.1 11.4 0 17.1 15.1-0.3 22.9-0.1 26.8-0.1l0 4.9c0 0-4.4 0-16.7 0l-16.9 0 0-48.7z" fill="#003d7c"></path></svg>