<svg xmlns:svg="http://www.w3.org/2000/svg" xmlns="http://www.w3.org/2000/svg" version="1.1" xml:space="preserve" width="398.2" height="250.4" viewBox="0 0 398.2 250.4"><defs><clipPath clipPathUnits="userSpaceOnUse"><path d="M0 400 400 400 400 0 0 0 0 400Z"></path></clipPath><clipPath clipPathUnits="userSpaceOnUse"><path d="M0 400 400 400 400 0 0 0 0 400Z"></path></clipPath></defs><g transform="matrix(1.25,0,0,-1.25,-50.531295,347.93813)"><g clip-path="url(#clipPath16)"><g transform="translate(204.5688,278.2705)"><path d="m0 0c7.2 0 13.1-5.7 13.1-12.6 0-6.9-5.8-12.5-13.1-12.5-7.3 0-13.2 5.6-13.2 12.5C-13.2-5.7-7.3 0 0 0" fill="#ffcf00"></path></g><g transform="translate(201.7939,248.6592)"><path d="m0 0c-4 0-16.2 0-16.2-13.4 0-6.3 3.1-9.7 5.9-11.1l0-34.3c0-2.9 0.2-7.1 2.1-10.4 2.1-3.8 5.8-5.7 11-5.7 12.7 0 13 10.9 13.1 16.1l0 42.9C15.9 0 3.9 0 0 0" fill="#ffcf00"></path></g><g transform="translate(100.8232,213.4761)"><path d="m0 0c-4.2 3.6-10.1 6.4-17.5 9.9l-0.1 0 0 0c-3.8 1.6-5 2.9-5 4.9 0 2.8 2.8 3 3.7 3 2.5 0 3.1-1.1 4.1-3.4 1.2-2.9 3.6-6.8 10.2-6.8 7.8 0 11.3 5.5 11.3 10.9 0 4.5-2.1 10.5-12 14-5.3 1.9-11.3 2.4-14 2.4-18.6 0-29.3-8.1-29.3-22.1 0-13.9 9.6-18.2 16.6-21.3 9.5-4.3 12.9-6.3 12.9-9.3 0-1.6-1.3-3.4-4.8-3.4-2.5 0-3.5 1.7-4.3 4.8-0.6 2.5-2.8 6.6-10.3 6.6-5.9 0-12.3-3.1-12.3-11.7 0-5.7 2.7-10.4 7.9-13.6 4.9-3 11.6-4.5 19.7-4.5 10.8 0 18.4 2.4 23.5 7.5 5.4 5.2 6.5 11.8 6.5 16.5C6.8-9 4.7-4.1 0 0" fill="#ffcf00"></path></g><g transform="translate(270.6162,207.6431)"><path d="m0 0c-5.6 0-9.3-2.4-11.1-7.2-0.5-1.3-0.8-2.7-1-4-0.7-3.5-1.1-4.4-3.4-4.4-2.7 0-3.9 1.5-4.3 5.7l0 0.1c-0.2 4.1-0.2 10.5-0.2 14.7 0 14.3 0.7 15.6 1.1 16.4 0.7 1.1 1.7 1.7 3.2 1.7 2 0 2.5-0.8 3.1-3.4 0 0 0.8-4.7 2.5-7.2 2.2-3.3 5.1-5.1 9.7-5.1 6.3 0 12.6 4 12.6 13 0 6.1-2.8 11.6-7.9 15.3-5 3.6-11.7 5.6-19.6 5.6-4.8 0-16.6-0.9-24.1-8.6-6.1-6.5-7.2-14.2-7.2-29.1 0-16.8 1.7-25.4 11.4-32 5.1-3.4 11.7-5.2 19.8-5.2 6.9 0 13.7 1.7 18.6 4.6 6.3 3.7 9.6 9.3 9.6 16.3C12.5-5.1 7.6 0 0 0" fill="#ffcf00"></path></g><g transform="translate(316.4585,229.1865)"><path d="M0 0C1.1 1.3 2.7 1.3 4 1.3 5.3 1.3 6.9 1.3 8 0 8.9-1.1 9.2-3 9.3-7.1l-10.7 0C-1.2-3-1-1.1 0 0m19-27.1c-3.4 0-7.2-0.5-9.5-4.3-0.7-1.2-1.1-2.2-1.5-3.2-0.9-2.3-1.3-3.2-4.1-3.2-3 0-3.9 1.1-4.5 3-0.4 1.4-0.8 6.2-0.9 10.4l20.5 0c4 0 7.6 0.2 10.3 2.2 3 2.2 4.3 5.9 4.3 12 0 5.9-0.5 12.7-4.3 18.7-4.7 7.4-13.4 11.2-25.8 11.2-11.2 0-20.2-3.4-25.3-9.7-5.6-6.7-5.8-15.2-5.8-30.7 0-12.6 0.6-20.8 8.4-27.6 5.4-4.7 13-6.9 23.3-6.9 10.2 0 17.8 2.3 22.3 6.8 3.9 3.9 4.4 8.2 4.4 10.5 0 6.6-4.7 11-11.7 11" fill="#ffcf00"></path></g><g transform="translate(151.3638,194.9873)"><path d="m0 0c-5.1 0-5.4 1.7-5.4 16.4 0 14.7 0.3 16.4 5.4 16.4 5.1 0 5.4-1.7 5.4-16.4C5.4 1.7 5.1 0 0 0m23.2 49c-3.3 3.3-8 5-13.9 5-8.7 0-13.6-4.5-16.4-8.7-2 4.6-6.1 8.3-14.3 8.3-3.9 0-15.9 0-16.1-13.3-0.2-6.3 3.1-9.7 5.8-11.1l0-57c0-3.9 0-15.7 13-15.7 13.1 0 13.1 11.8 13.1 15.7l0 13.2c3.9-4.3 9.2-6.7 15.2-6.7 5.2 0 12.3 1.5 16.5 8.7l0 0c3.2 5.3 3.7 11.5 3.7 24.2 0 1.6 0 3.1 0 4.6 0.1 13.4 0.2 26-6.7 32.9" fill="#ffcf00"></path></g><g transform="translate(232.7964,135.0186)"><path d="m0 0c0.5-0.1 1.4-0.1 2.2-0.1 5.7 0 9.4 3.1 9.4 9.7 0 5.7-3.3 8.8-8.7 8.8C1.4 18.3 0.5 18.2 0 18.1L0 0Zm-6.3 22.6c2.3 0.4 5.3 0.6 8.5 0.6 5.3 0 8.7-0.9 11.3-3 2.9-2.1 4.7-5.5 4.7-10.4 0-5.3-1.9-8.9-4.6-11.2-2.9-2.4-7.3-3.6-12.8-3.6-3.2 0-5.5 0.2-7.1 0.4l0 27.2z" fill="#ffcf00"></path></g><path d="m255 150.4 6.2 0 0-20.1-6.2 0 0 20.1zm6.4 5.6c0-1.7-1.3-3.1-3.4-3.1-2 0-3.3 1.4-3.2 3.1 0 1.8 1.3 3.2 3.3 3.2 2 0 3.3-1.4 3.3-3.2" fill="#ffcf00"></path><g transform="translate(279.0117,142.1982)"><path d="m0 0c0 0.4 0 0.8-0.1 1.1-0.5 1.6-1.6 2.7-3.4 2.7-2.3 0-4.1-2.1-4.1-5.7 0-3 1.5-5.3 4.1-5.3 1.6 0 2.9 1.1 3.3 2.5C0-4.1 0-3.5 0-3L0 0ZM6.4 8.2C6.3 6.9 6.2 5.2 6.2 2.2l0-11.2c0-3.9-0.8-7-3-9-2.2-1.9-5.2-2.5-8.2-2.5-2.6 0-5.4 0.5-7.2 1.6l1.2 4.7c1.3-0.7 3.5-1.5 5.8-1.5 3 0 5.2 1.6 5.2 5.3l0 1.3-0.1 0c-1.2-1.7-3.1-2.6-5.4-2.6-5 0-8.5 4-8.5 9.8 0 6.4 4.2 10.5 9.1 10.5 2.7 0 4.5-1.2 5.5-2.8l0.1 0 0.2 2.4 5.4 0z" fill="#ffcf00"></path></g><path d="m290.3 150.4 6.2 0 0-20.1-6.2 0 0 20.1zm6.4 5.6c0-1.7-1.3-3.1-3.4-3.1-2 0-3.3 1.4-3.2 3.1 0 1.8 1.3 3.2 3.3 3.2 2 0 3.3-1.4 3.3-3.2" fill="#ffcf00"></path><g transform="translate(308.459,156.1045)"><path d="m0 0 0-5.7 4.5 0 0-4.6-4.5 0 0-7.3c0-2.4 0.6-3.5 2.5-3.5 0.8 0 1.4 0.1 1.8 0.2l0-4.7c-0.8-0.3-2.3-0.5-4.1-0.5-2 0-3.7 0.7-4.7 1.7-1.1 1.2-1.7 3.1-1.7 5.9l0 8.2-2.7 0 0 4.6 2.7 0 0 4.3L0 0Z" fill="#ffcf00"></path></g><g transform="translate(327.2017,139.7764)"><path d="m0 0c-3.3 0-5.8-0.7-5.8-3.2 0-1.6 1.1-2.4 2.5-2.4 1.6 0 2.8 1 3.2 2.3C0-2.9 0-2.5 0-2.2L0 0Zm0.7-9.5-0.4 2-0.1 0c-1.3-1.6-3.4-2.5-5.7-2.5-4.1 0-6.5 3-6.5 6.2 0 5.2 4.7 7.7 11.8 7.7l0 0.3c0 1.1-0.6 2.6-3.6 2.6-2.1 0-4.2-0.7-5.5-1.5l-1.1 4c1.4 0.8 4.1 1.8 7.8 1.8 6.7 0 8.8-3.9 8.8-8.7l0-7c0-1.9 0.1-3.8 0.3-4.9l-5.6 0z" fill="#ffcf00"></path></g><path d="m338.2 159.4 6.2 0 0-29.1-6.2 0 0 29.1z" fill="#ffcf00"></path></g><g transform="translate(-0.364564,-102.48327)"><g transform="translate(47.3696,195.9297)"><path d="M0 0 5.7 0 2.8 7.6 0 0Zm7-3.4-8.2 0-1.6-4.3-3.7 0 7.6 19.9 3.7 0 7.6-19.9-3.8 0-1.6 4.3z" fill="#ffcf00"></path></g><g clip-path="url(#clipPath20)"><g transform="translate(246.7349,197.459)"><path d="m0 0c0-4.5 2-6.1 5.1-6.1 2 0 4 0.9 4.8 1.7L11-7.7C9.7-8.7 8-9.5 5.1-9.5 0-9.5-3.7-6.8-3.7 0l0 1.5C-3.7 8.2 0 11 5.1 11 7.7 11 9.5 10.1 11 9.3L9.9 5.9C8.8 6.7 6.9 7.6 5.1 7.6 2 7.6 0 5.9 0 1.5L0 0Z" fill="#ffcf00"></path></g><g transform="translate(269.9146,196.0527)"><path d="M0 0C0 3.4-1.3 4.5-3.5 4.5-5.8 4.5-7.1 3.4-7.1 0l0-0.3c0-3.4 1.3-4.5 3.5-4.5 2.3 0 3.5 1.1 3.5 4.5L0 0Zm-10.6 0c0 5.6 3 7.8 7.1 7.8 4.1 0 7.1-2.2 7.1-7.8l0-0.3c0-5.6-3-7.8-7.1-7.8-4.1 0-7.1 2.3-7.1 7.8l0 0.3z" fill="#ffcf00"></path></g><g transform="translate(275.6948,203.0859)"><path d="m0 0c1.5 0.5 3.9 0.8 6.3 0.8 1.6 0 3-0.3 4-1.3 1.3 0.9 3.2 1.3 5 1.3 3.6 0 6.3-2 6.3-6.7l0-8.9-3.5 0 0 9.2c0 2.4-1.2 3.1-3.1 3.1-1.3 0-2.4-0.2-3-0.5 0.3-0.9 0.6-1.7 0.6-2.9l0-8.9-3.5 0 0 9.2c0 2.4-1.2 3.1-3.1 3.1-1.1 0-1.7-0.1-2.4-0.2l0-12.1-3.5 0L0 0Z" fill="#ffcf00"></path></g><g transform="translate(309.5142,196.1445)"><path d="M0 0C0 3.5-1.4 4.4-3.9 4.4-5 4.4-5.6 4.3-6.2 4.2l0-8.6c0.4-0.2 1.2-0.5 2.2-0.5 2.3 0 3.9 0.8 3.9 4.4L0 0Zm-9.7 6.9c1.9 0.6 4.7 0.8 6 0.8 4.3 0 7.3-2.6 7.3-7.7l0-0.5c0-5.3-3.1-7.7-7.2-7.7-0.9 0-1.8 0.1-2.5 0.4l0-7.7-3.5 0 0 22.5z" fill="#ffcf00"></path></g><g transform="translate(324.3755,195.2881)"><path d="m0 0c-3.9 0-6.2-0.2-6.2-2l0-0.2c0-1.3 1.4-1.9 3.1-1.9 1.3 0 2.2 0.1 3.1 0.2L0 0Zm3.5-6.6c-1.8-0.5-4.2-0.8-6.7-0.8-3.3 0-6.6 1.7-6.6 5.2l0 0.2c0 2.9 2.7 4.5 7.3 4.6 0.8 0 1.6 0.1 2.4 0.1l0 0.6c0 1.4-1.3 1.9-3.3 1.9-2 0-3.5-0.5-4.6-0.9-0.4 1.1-0.7 2.1-1 3.2 1.7 0.6 3.5 1.1 5.9 1.1 3.7 0 6.6-1.5 6.6-5.7l0-9.4z" fill="#ffcf00"></path></g><g transform="translate(330.4927,203.0859)"><path d="m0 0c1.5 0.5 4.1 0.8 6.6 0.8 3.9 0 6.7-2 6.7-6.7l0-8.9-3.5 0 0 9.2c0 2.4-1.3 3.1-3.4 3.1-1.3 0-1.9-0.1-2.8-0.2l0-12.1-3.5 0L0 0Z" fill="#ffcf00"></path></g><g transform="translate(359.2358,187.2764)"><path d="m0 0c0-4.5-2.9-6.7-6.9-6.7-2.4 0-4.3 0.5-6 1.4l1 3.2c1.3-0.8 3-1.2 5-1.2 2 0 3.4 0.9 3.4 3.3l0 0.9C-4.3 0.7-5.6 0.6-6.6 0.6c-3.6 0-6.7 1.8-6.7 6.7l0 8.9 3.5 0 0-9.2c0-2.4 1.3-3.1 3.4-3.1 1.2 0 1.9 0.1 2.8 0.2l0 12 3.5 0L0 0Z" fill="#ffcf00"></path></g><g transform="translate(154.4126,192.9512)"><path d="m0 0 0 0 0-0.1c-0.1-0.5-0.2-1.6-1.4-1.6-1.2 0-1.3 1.1-1.4 1.6l0 0.1 0 0c-0.1 0.8-0.1 2.1-0.1 3.3 0 3.3 0.2 3.6 0.3 3.8 0.2 0.4 0.6 0.6 1.1 0.6l0 0 0 0c0 0 0 0 0 0 0 0 0 0 0 0l0 0C-1 7.7-0.6 7.5-0.4 7.1-0.1 6.8 0.1 6.6 0.1 3.3 0.1 2.1 0.1 0.8 0 0m3.6 9c-1.5 1.6-3.9 1.8-4.9 1.8l0 0 0 0c-1 0-3.4-0.2-4.9-1.8-1.4-1.3-1.6-2.9-1.6-6.1 0-3.5 0.3-5.3 2.3-6.7 1-0.7 2.4-1.1 4.1-1.1l0 0 0 0 0 0c1.7 0 3 0.4 4.1 1.1C4.7-2.5 5-0.7 5 2.9 5 6.1 4.8 7.7 3.6 9" fill="#3bb4e8"></path></g><g transform="translate(100.0142,210.1494)"><path d="m0 0c1.5 0 2.8-1.2 2.8-2.7 0-1.5-1.2-2.6-2.8-2.6-1.5 0-2.8 1.2-2.8 2.6 0 1.5 1.3 2.7 2.8 2.7" fill="#ffcf00"></path></g><g transform="translate(99.4292,203.877)"><path d="m0 0c-0.9 0-3.4 0-3.4-2.8 0-1.4 0.7-2.1 1.2-2.4l0-7.3c0-0.6 0.1-1.5 0.4-2.2 0.5-0.8 1.2-1.2 2.3-1.2 2.7 0 2.7 2.3 2.8 3.4l0 9.1C3.4 0 0.8 0 0 0" fill="#ffcf00"></path></g><g transform="translate(224.3804,198.6895)"><path d="m0 0 0-7.3c0-0.6 0-1.5 0.4-2.2 0.5-0.8 1.2-1.2 2.3-1.2 2.7 0 2.7 2.3 2.8 3.4l0 7 0 7.3C5.6 7.6 5.5 8.5 5.1 9.2 4.7 10 3.9 10.4 2.8 10.4 0.1 10.4 0 8.1 0 7L0 0Z" fill="#3bb4e8"></path></g><g transform="translate(227.3042,203.7734)"><path d="M0 0-1.6 0C-2.2 0-3.1 0-3.8-0.4-4.6-0.9-5-1.6-5-2.7c0-2.7 2.3-2.7 3.4-2.8l1.4 0 1.6 0c0.6 0 1.5 0 2.2 0.4 0.8 0.5 1.2 1.2 1.2 2.3 0 2.7-2.3 2.7-3.4 2.8L0 0Z" fill="#3bb4e8"></path></g><g transform="translate(78.0435,196.4297)"><path d="m0 0c-0.9 0.8-2.1 1.4-3.7 2.1l0 0 0 0c-0.8 0.3-1.1 0.6-1.1 1 0 0.6 0.6 0.6 0.8 0.6 0.5 0 0.7-0.2 0.9-0.7 0.3-0.6 0.8-1.4 2.2-1.4 1.7 0 2.4 1.2 2.4 2.3 0 0.9-0.4 2.2-2.5 3-1.1 0.4-2.4 0.5-3 0.5-3.9 0-6.2-1.7-6.2-4.7 0-2.9 2-3.9 3.5-4.5 2-0.9 2.7-1.3 2.7-2 0-0.3-0.3-0.7-1-0.7-0.5 0-0.7 0.4-0.9 1-0.1 0.5-0.6 1.4-2.2 1.4-1.3 0-2.6-0.6-2.6-2.5 0-1.2 0.6-2.2 1.7-2.9 1-0.6 2.5-1 4.2-1 2.3 0 3.9 0.5 5 1.6 1.1 1.1 1.4 2.5 1.4 3.5C1.4-1.9 1-0.9 0 0" fill="#ffcf00"></path></g><g transform="translate(114.0015,195.1934)"><path d="m0 0c-1.2 0-2-0.5-2.4-1.5-0.1-0.3-0.2-0.6-0.2-0.8-0.1-0.8-0.2-0.9-0.7-0.9-0.6 0-0.8 0.3-0.9 1.2l0 0c0 0.9 0 2.2 0 3.1 0 3 0.1 3.3 0.2 3.5 0.1 0.2 0.4 0.4 0.7 0.4 0.4 0 0.5-0.2 0.6-0.7 0 0 0.2-1 0.5-1.5 0.5-0.7 1.1-1.1 2.1-1.1 1.3 0 2.7 0.8 2.7 2.8 0 1.3-0.6 2.4-1.7 3.2-1.1 0.8-2.5 1.2-4.1 1.2-1 0-3.5-0.2-5.1-1.8-1.3-1.4-1.5-3-1.5-6.2 0-3.6 0.4-5.4 2.4-6.8 1.1-0.7 2.5-1.1 4.2-1.1 1.5 0 2.9 0.4 3.9 1 1.3 0.8 2 2 2 3.4C2.7-1.1 1.6 0 0 0" fill="#ffcf00"></path></g><g transform="translate(142.6567,195.168)"><path d="m0 0c-1.2 0-2-0.5-2.4-1.5-0.1-0.3-0.2-0.6-0.2-0.8-0.1-0.7-0.2-0.9-0.7-0.9-0.6 0-0.8 0.3-0.9 1.2l0 0c0 0.9 0 2.2 0 3.1 0 3 0.1 3.3 0.2 3.5 0.1 0.2 0.4 0.4 0.7 0.4 0.4 0 0.5-0.2 0.7-0.7 0 0 0.2-1 0.5-1.5 0.5-0.7 1.1-1.1 2-1.1 1.3 0 2.7 0.8 2.7 2.8 0 1.3-0.6 2.4-1.7 3.2-1 0.8-2.5 1.2-4.1 1.2-1 0-3.5-0.2-5.1-1.8-1.3-1.4-1.5-3-1.5-6.2 0-3.6 0.4-5.4 2.4-6.8 1.1-0.7 2.5-1.1 4.2-1.1 1.5 0 2.9 0.4 3.9 1 1.3 0.8 2 2 2 3.4C2.7-1.1 1.6 0 0 0" fill="#3bb4e8"></path></g><g transform="translate(218.2837,195.168)"><path d="m0 0c-1.2 0-2-0.5-2.4-1.5-0.1-0.3-0.2-0.6-0.2-0.8-0.1-0.7-0.2-0.9-0.7-0.9-0.6 0-0.8 0.3-0.9 1.2l0 0c0 0.9 0 2.2 0 3.1 0 3 0.1 3.3 0.2 3.5 0.1 0.2 0.4 0.4 0.7 0.4 0.4 0 0.5-0.2 0.6-0.7 0 0 0.2-1 0.5-1.5 0.5-0.7 1.1-1.1 2-1.1 1.3 0 2.7 0.8 2.7 2.8 0 1.3-0.6 2.4-1.7 3.2-1.1 0.8-2.5 1.2-4.1 1.2-1 0-3.5-0.2-5.1-1.8-1.3-1.4-1.5-3-1.5-6.2 0-3.6 0.4-5.4 2.4-6.8 1.1-0.7 2.5-1.1 4.2-1.1 1.5 0 2.9 0.4 3.9 1 1.3 0.8 2 2 2 3.4C2.7-1.1 1.6 0 0 0" fill="#3bb4e8"></path></g><g transform="translate(123.7124,199.75)"><path d="M0 0C0.2 0.3 0.6 0.3 0.8 0.3 1.1 0.3 1.5 0.3 1.7 0 1.9-0.2 1.9-0.6 2-1.5l-2.3 0c0 0.9 0.1 1.3 0.3 1.5M4-5.7C3.3-5.7 2.5-5.8 2-6.6 1.9-6.9 1.8-7.1 1.7-7.3 1.5-7.8 1.4-8 0.8-8c-0.6 0-0.8 0.2-1 0.6-0.1 0.3-0.2 1.3-0.2 2.2l4.3 0c0.8 0 1.6 0 2.2 0.5C6.7-4.2 7-3.5 7-2.2 7-0.9 6.9 0.5 6.1 1.8 5.1 3.4 3.3 4.2 0.6 4.2-1.8 4.2-3.7 3.5-4.8 2.1-6 0.7-6-1.1-6-4.4c0-2.7 0.1-4.4 1.8-5.8 1.2-1 2.8-1.5 4.9-1.5 2.2 0 3.8 0.5 4.7 1.4 0.8 0.8 0.9 1.7 0.9 2.2 0 1.4-1 2.3-2.5 2.3" fill="#ffcf00"></path></g><g transform="translate(200.064,199.75)"><path d="M0 0C0.2 0.3 0.6 0.3 0.8 0.3 1.1 0.3 1.5 0.3 1.7 0 1.9-0.2 1.9-0.6 2-1.5l-2.3 0c0 0.9 0.1 1.3 0.3 1.5M4-5.7C3.3-5.7 2.5-5.8 2-6.6 1.9-6.9 1.8-7.1 1.7-7.3 1.5-7.8 1.4-8 0.8-8c-0.6 0-0.8 0.2-1 0.6-0.1 0.3-0.2 1.3-0.2 2.2l4.3 0c0.9 0 1.6 0 2.2 0.5C6.7-4.2 7-3.5 7-2.2 7-0.9 6.9 0.5 6.1 1.8 5.1 3.4 3.3 4.2 0.6 4.2-1.8 4.2-3.7 3.5-4.8 2.1-6 0.7-6-1.1-6-4.4c0-2.7 0.1-4.4 1.8-5.8 1.1-1 2.8-1.5 4.9-1.5 2.2 0 3.8 0.5 4.7 1.4 0.8 0.8 0.9 1.7 0.9 2.2 0 1.4-1 2.3-2.5 2.3" fill="#3bb4e8"></path></g><g transform="translate(88.7485,192.5137)"><path d="M0 0C-1.1 0-1.1 0.4-1.1 3.5-1.1 6.6-1 7 0 7 1.1 7 1.1 6.6 1.1 3.5 1.1 0.4 1.1 0 0 0m4.9 10.4c-0.7 0.7-1.7 1-2.9 1-1.8 0-2.9-0.9-3.5-1.8-0.4 1-1.3 1.8-3 1.8-0.8 0-3.4 0-3.4-2.8C-8 7.2-7.3 6.5-6.7 6.2l0-12.1c0-0.8 0-3.3 2.8-3.3 2.8 0 2.8 2.5 2.8 3.3l0 2.8c0.8-0.9 1.9-1.4 3.2-1.4 1.1 0 2.6 0.3 3.5 1.8l-0.1 0c0.7 1.1 0.8 2.4 0.8 5.1 0 0.3 0 0.6 0 1 0 2.8 0 5.5-1.4 7" fill="#ffcf00"></path></g><g transform="translate(171.0151,203.8828)"><path d="m0 0c-0.1 0-0.2 0-0.3 0-2.4 0-3.6-1.4-3.6-1.4l0-0.2C-4.6 0-6.3 0-6.9 0c-0.9 0-3.4 0-3.4-2.8 0-1.3 0.7-2 1.2-2.3l0-7.3c0-0.6 0-1.5 0.4-2.2 0.5-0.8 1.2-1.2 2.3-1.2 2.7 0 2.7 2.3 2.8 3.4l0 7.1c0 0.1 0.1 0.2 0.2 0.2 0.3 0.4 0.8 0.6 1.3 0.6 0.5 0 1-0.2 1.4-0.7 0.3-0.3 0.4-0.6 0.5-1l0-6.2c0-0.6 0-1.5 0.4-2.2 0.5-0.8 1.2-1.2 2.3-1.2 2.7 0 2.5 2.3 2.5 3.4l0 7C5.1-1.8 2.3-0.1 0 0" fill="#3bb4e8"></path></g><g transform="translate(187.7622,203.7734)"><path d="m0 0c-0.1 0-0.2 0-0.3 0-2.4 0-3.6-1.4-3.6-1.4l0-0.2C-4.6 0-6.3 0-6.9 0c-0.9 0-3.4 0-3.4-2.8 0-1.4 0.7-2.1 1.2-2.4l0-7.3c0-0.6 0.1-1.5 0.4-2.2 0.5-0.8 1.2-1.2 2.3-1.2 2.7 0 2.7 2.3 2.8 3.4l0 7.1c0.1 0.1 0.1 0.2 0.2 0.2 0.3 0.4 0.8 0.6 1.3 0.6 0.5 0 1-0.2 1.4-0.7 0.3-0.3 0.4-0.6 0.5-1l0-6.2c0-0.6 0-1.5 0.4-2.2 0.5-0.8 1.2-1.2 2.3-1.2 2.7 0 2.5 2.3 2.5 3.4l0 7C5.1-1.8 2.3-0.1 0 0" fill="#3bb4e8"></path></g><g transform="translate(102.3384,207.459)"><path d="m0 0c0-1.4-1.1-2.4-2.4-2.4-1.4 0-2.5 1.1-2.5 2.4 0 1.4 1.1 2.4 2.5 2.4C-1.1 2.4 0 1.4 0 0" fill="#ffcf00"></path></g><g transform="translate(105.3774,212.7012)"><path d="m0 0c0-1.2-0.9-2.1-2.1-2.1-1.1 0-2.1 0.9-2.1 2.1 0 1.2 0.9 2.1 2.1 2.1C-0.9 2.1 0 1.2 0 0" fill="#ffcf00"></path></g><g transform="translate(109.7681,215.7793)"><path d="m0 0c0-1-0.8-1.8-1.8-1.8-1 0-1.8 0.8-1.8 1.8 0 1 0.8 1.8 1.8 1.8C-0.8 1.8 0 1 0 0" fill="#ffcf00"></path></g><g transform="translate(114.2495,217.416)"><path d="M0 0C0-0.8-0.7-1.5-1.5-1.5-2.3-1.5-3-0.8-3 0-3 0.8-2.3 1.5-1.5 1.5-0.7 1.5 0 0.8 0 0" fill="#ddc45c"></path></g><g transform="translate(118.5161,218.1182)"><path d="m0 0c0-0.7-0.6-1.3-1.3-1.3-0.7 0-1.3 0.6-1.3 1.3 0 0.7 0.6 1.3 1.3 1.3C-0.6 1.3 0 0.7 0 0" fill="#b4ba85"></path></g><g transform="translate(122.479,218.125)"><path d="m0 0c0-0.6-0.5-1.1-1.1-1.1-0.6 0-1.1 0.5-1.1 1.1 0 0.6 0.5 1.1 1.1 1.1C-0.5 1.1 0 0.6 0 0" fill="#85afa5"></path></g><g transform="translate(126.0669,217.6699)"><path d="m0 0c0-0.5-0.4-0.9-0.9-0.9-0.5 0-0.9 0.4-0.9 0.9 0 0.5 0.4 0.9 0.9 0.9C-0.4 0.9 0 0.5 0 0" fill="#63aaba"></path></g><g transform="translate(129.2876,216.791)"><path d="m0 0c0-0.4-0.3-0.8-0.8-0.8-0.4 0-0.8 0.4-0.8 0.8 0 0.4 0.3 0.8 0.8 0.8C-0.3 0.8 0 0.4 0 0" fill="#15a3d4"></path></g><g transform="translate(132.145,215.585)"><path d="m0 0c0-0.4-0.3-0.7-0.7-0.7-0.4 0-0.7 0.3-0.7 0.7 0 0.4 0.3 0.7 0.7 0.7C-0.3 0.7 0 0.4 0 0" fill="#00a0dc"></path></g><g transform="translate(134.6392,214.0459)"><path d="m0 0c0-0.3-0.3-0.6-0.6-0.6-0.3 0-0.6 0.2-0.6 0.6 0 0.3 0.3 0.6 0.6 0.6C-0.3 0.6 0 0.3 0 0" fill="#00a3d7"></path></g><g transform="translate(136.7446,212.2285)"><path d="M0 0C0-0.3-0.2-0.5-0.5-0.5-0.8-0.5-1-0.3-1 0-1 0.3-0.8 0.5-0.5 0.5-0.2 0.5 0 0.3 0 0" fill="#00a3da"></path></g><g transform="translate(138.3384,210.1367)"><path d="m0 0c0-0.2-0.2-0.4-0.4-0.4-0.2 0-0.4 0.2-0.4 0.4 0 0.2 0.2 0.4 0.4 0.4C-0.2 0.4 0 0.2 0 0" fill="#00a1dd"></path></g><g transform="translate(139.3813,207.8652)"><path d="m0 0c0-0.2-0.2-0.4-0.3-0.4-0.2 0-0.4 0.2-0.4 0.4 0 0.2 0.2 0.3 0.4 0.3C-0.2 0.3 0 0.2 0 0" fill="#00a0dd"></path></g><g transform="translate(139.772,205.4766)"><path d="m0 0c0-0.2-0.1-0.3-0.3-0.3-0.2 0-0.3 0.1-0.3 0.3 0 0.2 0.1 0.3 0.3 0.3C-0.1 0.3 0 0.2 0 0" fill="#00a0dd"></path></g></g></g></g></svg>