<svg xmlns:svg="http://www.w3.org/2000/svg" xmlns="http://www.w3.org/2000/svg" version="1.1" width="438" height="120.9" viewBox="0 0 438 120.9"><style>.s0{fill:#000;}</style><path d="m5.71 112.59 0.08-7.81-3.17 0-3.17 0 0.09-3.22 0.09-3.22 10.65-0.08 10.65-0.08-0.09 3.3-0.09 3.3-3.06 0-3.06 0 0.08 7.77 0.08 7.77-4.58 0.04-4.58 0.04 0.08-7.81zm12.97 7.66c0-0.1 7.62-19.98 8.31-21.69 0.11-0.28 1.32-0.37 4.58-0.37 3.18 0 4.52 0.11 4.74 0.38 0.17 0.21 2.07 4.97 4.21 10.58 2.15 5.61 4 10.44 4.11 10.73 0.19 0.49-0.12 0.53-4.15 0.53l-4.36 0-2.2-6.59-2.2-6.59-2.25 6.59-2.25 6.59-4.28 0c-2.35 0-4.28-0.06-4.28-0.13zm30-7.66 0-7.81-3.07 0-3.07 0 0.09-3.3 0.09-3.3 10.6 0 10.6 0 0.05 3.38 0.05 3.38-3.16-0.09-3.16-0.09-0.08 7.74-0.08 7.74-4.42 0.08-4.42 0.08 0-7.81zm13.29 6.82c0.22-0.54 2.14-5.53 4.27-11.11l3.87-10.13 4.63 0.08 4.63 0.08 4.16 10.8c2.29 5.94 4.16 10.9 4.16 11.03 0 0.13-1.92 0.2-4.28 0.15l-4.28-0.08-2.1-6.2c-1.15-3.41-2.18-6.28-2.27-6.37-0.09-0.09-0.48 0.81-0.86 2-0.38 1.19-1.37 4.09-2.19 6.44l-1.49 4.28-4.32 0-4.32 0 0.4-0.97zm45.1 0.67c-1.53-0.27-4.12-1.44-5.15-2.33-2.01-1.72-3.45-5.22-3.44-8.31 0.02-4.63 2.19-8.17 6.2-10.12 1.96-0.95 2.18-0.99 5.49-0.97 1.9 0.01 3.81 0.17 4.25 0.36 0.79 0.33 0.79 0.35 0.43 1.78-0.35 1.35-0.43 1.44-1.25 1.35-0.48-0.05-2.1-0.12-3.59-0.15-2.66-0.05-2.74-0.04-4.19 1.01-2.21 1.58-3 3.33-3 6.58 0 2.05 0.13 2.8 0.66 3.79 0.82 1.54 2.4 2.95 3.85 3.43 1.13 0.37 5.5 0.28 6.49-0.14 0.53-0.23 0.67 0.04 1.01 1.96 0.19 1.07 0.18 1.09-1.11 1.4-1.98 0.48-5.03 0.65-6.66 0.36zm18.1 0.21c-0.08-0.08-0.66-0.23-1.29-0.33-2.49-0.39-5.29-2.6-6.47-5.1-1.29-2.75-1.48-6.4-0.49-9.68 0.39-1.29 2.44-4.59 2.85-4.59 0.11 0 0.51-0.27 0.89-0.59 1.1-0.95 3.6-1.73 5.75-1.78 2.54-0.06 4.86 0.78 6.69 2.42 3.33 2.98 4.33 9.1 2.27 13.91-0.81 1.89-3.54 4.48-5.36 5.07-1.5 0.49-4.6 0.93-4.84 0.68zm2.7-3.51c2.57-0.72 4-3.12 4.15-6.96 0.13-3.26-0.48-5.29-2.08-6.98-1.07-1.13-1.24-1.19-3.18-1.29-2.33-0.12-3.37 0.35-4.7 2.09-0.82 1.08-1.7 3.93-1.7 5.54 0 3.19 1.6 6.37 3.68 7.31 1.44 0.65 2.3 0.72 3.82 0.29zm36.07 3.28c-0.87-0.15-2.05-0.47-2.63-0.71-0.94-0.39-1.03-0.53-0.85-1.28 0.47-1.9 0.64-2.33 0.89-2.27 0.15 0.04 0.85 0.28 1.57 0.53 1.51 0.54 4.35 0.64 5.49 0.2 1.03-0.4 1.76-1.45 1.76-2.55 0-1.23-1.54-2.55-4.21-3.61-3.39-1.34-5.39-3.51-5.39-5.8 0.01-3.76 3.22-6.39 7.78-6.38 1.4 0 4.7 0.64 4.96 0.95 0.04 0.05-0.12 0.79-0.36 1.63l-0.44 1.54-1.55-0.41c-2.21-0.59-4.07-0.53-5.22 0.18-0.83 0.5-0.97 0.77-0.97 1.75 0 1.51 0.65 2.1 4.05 3.66 4.06 1.86 5.29 3.28 5.31 6.13 0.02 2.29-0.86 4.05-2.62 5.22-0.79 0.53-1.66 0.97-1.92 0.98-0.26 0.01-0.68 0.07-0.92 0.12-1.56 0.32-3.36 0.38-4.73 0.14zm19.8 0.02c-1.84-0.38-3.39-1.35-4.37-2.73-1.46-2.05-1.69-3.57-1.69-11.59l0-7.27 1.95 0 1.95 0 0.02 6.23c0.02 7.42 0.08 8.26 0.72 9.82 0.7 1.7 1.77 2.4 3.67 2.4 2.64 0 4.09-1.63 4.41-4.95 0.09-0.91 0.17-4.32 0.17-7.57l0.01-5.92 1.97 0 1.97 0-0.1 7.73c-0.1 7.64-0.11 7.74-0.89 9.38-0.98 2.04-2 3.12-3.65 3.87-1.54 0.7-4.38 0.99-6.14 0.62zm91.13-0.02c-6.04-1.03-9.54-6.27-8.45-12.63 0.93-5.41 4.78-8.81 10.37-9.16 2.32-0.14 5.71 0.3 6.01 0.79 0.08 0.12-0.04 0.82-0.26 1.55-0.36 1.21-0.47 1.32-1.26 1.24-3.42-0.37-5.66-0.29-6.69 0.23-2.79 1.43-4.03 3.55-4.05 6.91-0.01 1.24 0.17 2.77 0.39 3.4 0.54 1.54 2.02 3.17 3.49 3.84 1.35 0.61 4.74 0.75 6.44 0.26 1.26-0.36 1.41-0.23 1.66 1.54l0.2 1.39-1.45 0.33c-2.27 0.51-4.6 0.63-6.4 0.32zm38.7 0.04c-0.74-0.13-1.87-0.46-2.5-0.72-1.08-0.45-1.14-0.54-0.94-1.46 0.12-0.54 0.33-1.29 0.47-1.66 0.25-0.65 0.3-0.66 1.13-0.23 1.32 0.68 4.09 1.03 5.61 0.7 2.1-0.45 3.03-2.1 2.21-3.91-0.32-0.7-1.09-1.16-4.78-2.87-3.2-1.48-4.5-3.12-4.5-5.66 0.02-4.59 5.28-7.26 11.11-5.62l1.71 0.48-0.47 1.55c-0.26 0.85-0.49 1.57-0.5 1.61-0.02 0.04-0.68-0.13-1.49-0.37-4.11-1.24-7.4 0.47-6.03 3.12 0.44 0.85 0.81 1.08 4.17 2.56 2.27 1 4.07 2.44 4.59 3.68 0.56 1.33 0.52 3.84-0.08 5.1-0.52 1.1-2.54 2.9-3.61 3.23-1.92 0.59-4.44 0.79-6.1 0.49zm83.1-0.04c-3.42-0.59-5.8-2.33-7.27-5.3-0.94-1.9-0.99-2.18-0.99-5.31 0-3.04 0.07-3.45 0.87-5.11 1.81-3.72 4.95-5.73 9.48-6.05 2.31-0.17 5.53 0.29 5.87 0.83 0.1 0.16 0.01 0.94-0.19 1.74l-0.37 1.45-1.35-0.41c-4.08-1.23-8.03 0.27-9.53 3.61-0.7 1.56-0.78 2.05-0.66 4.2 0.18 3.38 1.26 5.34 3.53 6.43 0.78 0.37 1.84 0.5 4.05 0.5 1.65 0 3.22-0.12 3.5-0.25 0.41-0.19 0.55 0.02 0.8 1.2 0.17 0.79 0.24 1.54 0.17 1.66-0.45 0.72-5.46 1.24-7.91 0.81zm31.05 0.13c-1.44-0.21-4.01-0.99-4.18-1.27-0.09-0.14 0.05-0.95 0.3-1.8l0.46-1.54 0.88 0.45c1.15 0.59 4.04 0.97 5.53 0.72 1.5-0.25 2.57-1.42 2.57-2.82 0-0.83-0.23-1.2-1.31-2.08-0.72-0.59-1.51-1.07-1.75-1.07-0.24 0-0.54-0.09-0.65-0.21-0.11-0.11-0.41-0.24-0.65-0.27-0.84-0.12-3.06-1.6-3.98-2.64-1.69-1.92-1.56-5.23 0.28-7.07 1.78-1.78 3.09-2.25 6.26-2.25 1.57 0 3.34 0.17 3.94 0.39l1.09 0.39-0.47 1.74-0.47 1.74-0.92-0.47c-0.51-0.26-1.81-0.52-2.89-0.58-1.78-0.1-2.05-0.04-2.92 0.69-0.72 0.6-0.96 1.05-0.96 1.78 0 1.3 0.75 1.94 4.2 3.54 4.15 1.93 5.71 4.05 5.22 7.08-0.41 2.56-2.75 4.98-5.09 5.28-2.54 0.32-3.67 0.39-4.48 0.28zm-201.52-0.34c-1.11-0.05-2.02-0.12-2.02-0.15 0-0.03 1.53-4.79 3.39-10.56l3.38-10.5 2.54-0.09 2.54-0.09 3.38 10.44c1.86 5.74 3.38 10.54 3.37 10.66-0.01 0.12-0.93 0.23-2.05 0.23l-2.04 0-0.98-3-0.98-3-3.36 0-3.36 0-0.9 3.07-0.9 3.07-2.02-0.09zm8.92-12.14c-0.55-1.69-1.16-3.68-1.36-4.42-0.2-0.74-0.4-1.22-0.45-1.05-0.39 1.43-2.26 7.66-2.41 8.05-0.17 0.44 0.12 0.5 2.51 0.5l2.7 0-0.99-3.07zm12.53 12.14-1.87-0.09 0-10.64 0-10.64 2.33 0 2.33 0 3.2 5.32c1.76 2.93 3.79 6.48 4.5 7.9l1.3 2.58-0.1-7.9-0.1-7.9 1.83 0 1.83 0 0 10.65 0 10.65-2.06 0-2.06 0-2.65-4.42c-2.84-4.74-3.48-5.87-5.3-9.37-0.64-1.24-1.2-2.28-1.25-2.32-0.04-0.04-0.02 3.4 0.06 7.65 0.08 4.25 0.09 7.93 0.03 8.17-0.09 0.35-0.52 0.43-1.99 0.36zm45.15 0-2.02-0.09 0-4.47 0-4.47-3.3-6.07c-1.81-3.34-3.3-6.12-3.3-6.18 0-0.06 1.02-0.07 2.27-0.02l2.27 0.09 1.86 4.05c1.02 2.23 1.99 4.36 2.15 4.73 0.26 0.6 0.56 0.1 2.51-4.12l2.22-4.81 2.21 0c1.21 0 2.21 0.06 2.21 0.13 0 0.07-1.52 2.74-3.37 5.93l-3.37 5.79-0.15 4.8-0.15 4.8-2.02-0.09zm-152.99-10.71 0.08-10.65 2.18 0 2.18 0 3.64 6.08c2 3.34 4.02 6.91 4.49 7.92l0.85 1.85-0.12-7.92-0.12-7.92 1.84 0 1.84 0 0 10.65 0 10.65-2.03 0-2.03 0-3.35-5.62c-1.84-3.09-3.91-6.7-4.6-8.02-0.69-1.32-1.27-2.42-1.29-2.45-0.03-0.03 0 3.58 0.06 8.03l0.1 8.08-1.9 0-1.9 0 0.08-10.65zm58.87 0 0-10.65 2.1 0 2.1 0 0 9 0 9 4.35 0 4.35 0 0 1.65 0 1.65-6.45 0-6.45 0 0-10.65zm16.8 1.65 0-9-3.07 0-3.07 0 0.1-1.65 0.1-1.65 8.07 0 8.07 0 0 1.65 0 1.65-3.15 0-3.15 0 0 9 0 9-1.95 0-1.95 0 0-9zm111.9-1.66 0-10.66 6.23 0.08 6.23 0.08 0.09 1.65 0.09 1.65-4.36-0.09-4.36-0.09 0 2.72 0 2.72 4.05 0 4.05 0 0 1.65 0 1.65-4.05 0-4.05 0 0 3 0 3 4.5 0 4.5 0 0 1.65 0 1.65-6.45 0-6.45 0 0-10.66zm16.2 0.19 0-10.47 1.07-0.2c1.71-0.32 7.69-0.25 8.99 0.1 3.32 0.91 4.88 3.52 4.21 7.07-0.23 1.24-1.73 3.08-2.85 3.51l-0.77 0.29 0.84 0.61c1.08 0.79 1.8 2.26 2.47 5.04 0.3 1.24 0.71 2.76 0.93 3.38l0.39 1.13-2.07 0-2.07 0-0.58-2.02c-0.32-1.11-0.74-2.65-0.94-3.42-0.2-0.76-0.73-1.79-1.17-2.27-0.71-0.78-1.03-0.89-2.67-0.95l-1.86-0.07 0 4.37 0 4.37-1.95 0-1.95 0 0-10.47zm8.92-1.79c1.55-0.83 2.05-2.91 1.08-4.55-0.69-1.16-1.58-1.5-3.98-1.5l-2.05 0-0.04 3.28-0.04 3.28 1.29 0.09c1.48 0.11 2.82-0.11 3.75-0.61zm11.37 3.48c-1.57-4.83-3.12-9.62-3.44-10.65l-0.58-1.87 2.17 0 2.17 0 2.29 7.73c1.26 4.25 2.38 8.12 2.5 8.6 0.18 0.76 0.32 0.49 1.07-2.1 0.48-1.63 1.68-5.5 2.67-8.6l1.8-5.62 2.12 0c1.57 0 2.08 0.1 1.98 0.38-0.08 0.21-1.74 5-3.7 10.65l-3.56 10.28-2.32 0-2.32 0-2.85-8.77zm16.92-1.87 0-10.65 2.1 0 2.1 0 0 10.65 0 10.65-2.1 0-2.1 0 0-10.65zm27.3 0 0-10.65 6.15 0 6.15 0 0 1.65 0 1.65-4.2 0-4.2 0 0 2.7 0 2.7 4.05 0 4.05 0 0 1.65 0 1.65-4.05 0-4.05 0 0 3 0 3 4.5 0 4.5 0 0 1.65 0 1.65-6.45 0-6.45 0 0-10.65zM197.53 66.29c2.27-5.9 4.2-10.86 4.3-11.02 0.1-0.17 2.13-0.29 4.78-0.29 4.1 0 4.62 0.06 4.81 0.53 0.11 0.29 1.96 5.12 4.11 10.73 2.15 5.61 3.96 10.29 4.03 10.41 0.07 0.12-1.83 0.25-4.22 0.3l-4.35 0.09-2.14-6.37c-1.18-3.51-2.24-6.31-2.36-6.24-0.12 0.07-1.15 2.9-2.29 6.28l-2.08 6.15-4.36 0.09-4.36 0.09 4.12-10.73zm38.79 10.58c0.05-0.08 1.87-4.81 4.05-10.5 2.18-5.69 4.09-10.59 4.24-10.87 0.25-0.47 0.81-0.53 4.88-0.53l4.6 0 2.03 5.33c1.12 2.93 3.01 7.86 4.21 10.96l2.18 5.63-4.36-0.08-4.36-0.08-2.09-6.22c-1.15-3.42-2.18-6.22-2.29-6.22-0.11 0-1.13 2.83-2.27 6.29l-2.08 6.29-4.41 0.09c-2.43 0.05-4.37 0.02-4.32-0.06zm-55.71-7.8 0.08-7.8-3.16 0-3.16 0 0-3.15 0-3.15 10.65 0 10.65 0 0 3.15 0 3.15-3.15 0-3.15 0 0 7.8 0 7.8-4.42 0-4.42 0 0.08-7.8zm42.9 0 0.08-7.8-3.16 0-3.16 0 0-3.15 0-3.15 10.65 0 10.65 0 0 3.15 0 3.15-3.15 0-3.15 0 0 7.8 0 7.8-4.42 0-4.42 0 0.08-7.8zm-6.53-41.35c0-18.82 0.47-16.98-4.28-16.88-1.69 0.04-3.68 0.13-4.42 0.2-5.07 0.49-15.11 2.05-19.05 2.97-0.99 0.23-1.83 0.38-1.88 0.34-0.04-0.04 0.44-0.88 1.07-1.86 2.15-3.32 7.49-7.45 12.03-9.3 1.09-0.44 2.38-0.97 2.87-1.18 1.13-0.47 5.29-1.47 8.25-1.97 3.4-0.58 11.49-0.43 15.15 0.28 5.22 1.01 7.13 1.6 10.77 3.3 3.52 1.65 5.97 3.38 8.58 6.04 2.46 2.52 4.1 5 3.1 4.69-0.77-0.24-9.41-1.96-10.64-2.12-5.4-0.71-12.06-1.36-14.48-1.41-4.49-0.09-4.08-1.79-4.08 17.03l0 15.72-1.5 0-1.5 0 0-15.85zm9.79 3.43c-2.73-13.34-2.82-14.55-1.1-15.7 0.87-0.58 1.3-0.67 2.7-0.54 0.92 0.09 3.36 0.3 5.42 0.48 2.06 0.18 5.91 0.66 8.55 1.06 2.64 0.4 5.21 0.79 5.7 0.87 3.1 0.46 3.08 0.45 3.27 1.41 0.33 1.64 0.19 4.87-0.27 6.67-0.48 1.82-1.77 4.43-3.03 6.09-1.53 2.02-5.35 5.48-6.05 5.48-0.16 0-0.48 0.22-0.7 0.49-0.63 0.76-6.07 3.23-9.28 4.22l-2.86 0.88-2.34-11.42zm-22.89 10.19c-3.33-1.12-7.55-3.13-8.18-3.88-0.22-0.26-0.53-0.48-0.69-0.48-0.54 0-3.28-2.37-5-4.31-3.12-3.54-4.56-7.14-4.51-11.28 0.03-2.6 0.24-3.42 0.87-3.57 3.7-0.85 15.49-2.41 21.62-2.86 3.87-0.29 5.01 0.78 4.64 4.32-0.16 1.48-4.13 21.29-4.53 22.58-0.23 0.73-0.73 0.66-4.22-0.51z" fill="#5F68C3"></path></svg>