<svg xmlns:svg="http://www.w3.org/2000/svg" xmlns="http://www.w3.org/2000/svg" width="84.7" height="148.2" viewBox="0 0 300 525.1" version="1.1"><g transform="translate(-73.571402,-469.43868)"><path d="m73.6 732 0-262.6 150 0 150 0 0 262.6 0 262.6-9.3-9.5C341.7 962.2 223.7 843 223.6 843c-0.1 0-118.1 119.2-140.7 142.1l-9.3 9.5zm150.6 94.7c0.1-1.3 0.4-2.2 0.6-2.3 0.3-0.2 0.3-1.1 0.3-4.4 0-4.1 0-4.2 0.5-4.2 0.3 0 0.8-0.3 1.1-0.6 0.6-0.6 0.6-0.6 0.6-5.5l0-4.9 0.8-0.1c0.4-0.1 0.8-0.3 0.8-0.4 0-0.1-0.3-0.3-0.7-0.4-0.7-0.2-0.7-0.2-0.7-1.9 0-1.7 0-1.7 0.8-2 0.6-0.2 0.7-0.3 0.4-0.5-0.2-0.1-0.6-0.2-0.8-0.2-0.4 0-0.4-0.3-0.4-1.8l0-1.8 0.8-0.1c1-0.2 1-0.6 0-0.8l-0.8-0.2 0.1-1.9 0.1-1.9 1-0.3c1.3-0.4 2.4-1.5 2.7-2.6 0.2-0.6 0.2-4 0.2-9.2l-0.1-8.3-3.8 2.3-3.8 2.3-3.8-2.3-3.8-2.3-0.1 8.3c0 5.2 0 8.7 0.2 9.2 0.3 1.1 1.4 2.2 2.7 2.6l1 0.3 0.1 1.9 0.1 1.9-0.8 0.2c-1 0.2-1 0.6 0 0.8l0.8 0.2 0 1.8c0 1.6-0.1 1.8-0.4 1.8-0.2 0-0.6 0.1-0.8 0.2-0.3 0.2-0.2 0.3 0.4 0.5 0.8 0.3 0.8 0.3 0.8 2 0 1.7 0 1.7-0.7 1.9-0.4 0.1-0.7 0.3-0.7 0.4 0 0.1 0.3 0.3 0.8 0.4l0.8 0.2 0 4.9c0 4.8 0 4.9 0.6 5.5 0.3 0.3 0.8 0.6 1.1 0.6 0.5 0 0.5 0.1 0.5 4.3 0 3.4 0.1 4.3 0.3 4.4 0.2 0.1 0.4 0.8 0.5 2.2 0.2 2.2 0.3 2.5 0.7 2.4 0.2-0.1 0.4-1 0.5-2.2zm6.2-56.4c3.7-2.2 6.7-4 6.7-4.2 0-0.2-13.1-8.1-13.5-8.1-0.3 0-13.5 7.9-13.6 8.1 0 0.2 13 8.1 13.5 8.1 0.2 0 3.3-1.7 6.9-3.9zm-14-8.7c3.6-2.1 6.7-3.9 6.9-4 0.2-0.1 3.1 1.4 7 3.8 3.6 2.1 6.8 4 6.9 4 0.2 0.1 0.3-1 0.3-5l0-5.1 1.6-0.7c1.7-0.7 3.7-2.2 5.7-4 1.7-1.6 90.8-105.5 92.5-107.9 4.2-5.8 6-9.1 6.8-12.5 0.5-1.8 0.5-2.6 0.4-5.4-0.1-2.8-0.2-3.6-0.9-5.5-1-2.8-2-4.5-4-6.7-4.1-4.5-9.3-7.1-16.8-8.4-2.5-0.4-6.3-0.5-99.2-0.5-92.9 0-96.7 0-99.2 0.5-7.5 1.3-12.7 3.9-16.8 8.4-2 2.1-3 3.9-4 6.7-0.7 1.9-0.8 2.6-0.9 5.5-0.1 2.8 0 3.6 0.4 5.4 0.9 3.5 2.7 6.7 6.8 12.5 1.7 2.4 90.7 106.2 92.5 107.9 1.9 1.8 3.9 3.3 5.7 4l1.6 0.7 0 5.1c0 2.8 0.1 5.1 0.1 5.1 0.1 0 3.1-1.7 6.7-3.9zm-1-3.6c-0.7-0.5-1.9-1.7-1.9-2 0-0.1 0.8-0.2 1.8-0.2 1.6-0.1 1.9-0.2 2.4-0.7 1-1.2 1.1-3.4 0-4.7-0.5-0.6-0.6-0.7-2.6-0.7l-2.1 0 0.2-0.7c0.3-1 1.3-2.5 2.2-3.1 2.9-1.8 5.9 2.7 5.1 7.6-0.6 3.7-3 5.8-5.1 4.5zm13.7 0c-1.8-1-2.9-4.4-2.5-7.5 0.5-3.7 3-5.9 5.1-4.6 0.9 0.6 2 2 2.2 3.1l0.2 0.7-2.1 0c-2 0-2.2 0-2.6 0.7-1 1.3-1 3.6 0 4.7 0.5 0.5 0.8 0.6 2.4 0.7 1 0 1.8 0.1 1.8 0.2 0 0.4-1.3 1.7-2 2.1-0.9 0.5-1.4 0.5-2.5-0.1zm-21.9-11.2c-2.3-2.1-90.3-104.6-92.8-108.2-4.5-6.4-5.8-9.3-5.8-12.9 0-4.3 1.8-7.9 5.4-10.7 2.3-1.8 4.7-3 7.8-3.8 5.1-1.3-0.1-1.3 101.7-1.3 101.9 0 96.7-0.1 101.7 1.3 6.8 1.8 11.6 6.1 12.9 11.4 1 4 0.2 7.5-2.8 12.1-2.7 4.2-8 10.6-49 58.4-40.9 47.7-47.7 55.4-48.6 55.4-0.1 0-0.2-2.3-0.2-5.2 0-2.9-0.1-5.3-0.1-5.3-0.1-0.1-3.2 1.6-6.9 3.8-3.7 2.2-6.8 4-7 4-0.2 0-3.3-1.8-7-4-3.7-2.2-6.8-3.9-6.9-3.8-0.1 0.1-0.1 2.5-0.1 5.3 0 2.9-0.1 5.2-0.2 5.2-0.1 0-1.1-0.8-2.1-1.7zm23.4-5.5c3.7-2.2 6.7-4 6.7-4.1 0-0.1-1-0.8-2.3-1.5-1.2-0.7-2.3-1.4-2.4-1.6-0.1-0.2 0.3-1.4 0.7-2.6l0.8-2.3 23.5-26.8 23.5-26.8 8.5-7.3c5-4.3 8.5-7.5 8.6-7.7 0.1-0.7-2-4.2-3.9-6.6-2.8-3.4-6.9-6.5-10.8-8.1-2.2-0.9-5.1-1.6-6.5-1.7l-1.1-0.1-1.7 3c-0.9 1.7-3.8 6.7-6.3 11.1l-4.6 8.1-19.9 23.9c-10.9 13.2-19.9 23.9-20 23.9-0.1 0-9.1-10.8-20-23.9l-19.9-23.9-4.6-8.1c-2.5-4.5-5.4-9.5-6.3-11.1l-1.7-3-1.1 0.1c-1.3 0.1-4.3 0.9-6.5 1.7-3.9 1.5-8.1 4.6-10.8 8.1-1.9 2.4-4 5.9-3.9 6.6 0 0.3 3.6 3.5 8.6 7.7l8.5 7.3 23.5 26.8 23.5 26.8 0.8 2.3c0.5 1.3 0.8 2.5 0.7 2.6-0.1 0.2-1.1 0.9-2.4 1.6-1.2 0.7-2.3 1.4-2.3 1.5 0 0.2 13.3 8 13.7 8 0.2 0 3.4-1.8 7.1-3.9zm-46.4-54.9c-0.8-0.8-0.9-1-0.7-1.9 0.2-1.5 1.1-2.3 2.6-2.3 1 0 1.2 0.1 1.9 0.8 1.6 1.8 0.4 4.3-2.1 4.3-0.5 0-1-0.3-1.6-0.9zm75.8 0.6c-0.7-0.3-1.4-1.5-1.4-2.4 0-0.5 0.3-1.1 0.7-1.6 0.6-0.7 0.9-0.8 1.9-0.8 1.5 0 2.4 0.8 2.6 2.3 0.1 0.9 0.1 1.1-0.7 1.9-0.9 0.9-2 1.1-3.1 0.6zm-80.8-6.4c-1.5-1-1.5-3.4 0-4.4 1-0.6 1.7-0.6 2.7-0.1 2.3 1.2 1.4 4.9-1.3 4.9-0.5 0-1.2-0.2-1.5-0.4zm85.9-0.1c-1-0.8-1.3-2-0.8-3.1 0.4-0.9 1.5-1.7 2.5-1.7 0.3 0 0.9 0.2 1.4 0.5 1.5 0.9 1.5 3.3 0 4.4-0.8 0.6-2.3 0.5-3-0.1zm-100.6-14.7c-5-2.4-3.5-9.8 1.9-9.8 2.2 0 3.8 1 4.8 3 0.7 1.3 0.4 3.7-0.5 5.1-1.4 1.9-4.2 2.7-6.2 1.8zm114.5 0.2c-2.1-0.7-3.4-2.6-3.4-4.9 0-2.9 2.2-5 5.2-5 4.4 0 6.7 5.1 3.7 8.4-1.4 1.6-3.6 2.2-5.5 1.5zm-132.2-7.5c2.5-6.3 7.9-12 14.2-15 2-1 6.3-2.2 7.5-2.2 0.3 0 0.7-0.1 0.7-0.3 0.3-0.5 0.2-5-0.1-6.9l-0.3-1.8-2.7 0c-8.4 0-15.4 2.8-20.8 8.5-2.5 2.7-4.3 5.2-6.1 8.7-1.2 2.4-2.6 6-2.6 6.5 0 0.6 4.4 2.5 7.1 3.1 2.6 0.5 2.6 0.5 3.1-0.6zm158 0.3c2-0.5 5.5-2.1 5.7-2.6 0.2-0.4-1.1-3.7-2.5-6.7-5.6-11.3-14.8-17.2-26.9-17.2l-2.7 0-0.3 1.8c-0.3 1.9-0.4 6.5-0.1 6.9 0.1 0.1 0.4 0.3 0.7 0.3 1.2 0 5.5 1.3 7.5 2.2 6.3 2.9 11.7 8.6 14.2 15l0.4 1.1 1.1-0.2c0.6-0.1 1.9-0.4 2.9-0.7zm-172.1-9.2c2.7-8.5 9-16.1 16.6-19.9 3.7-1.8 9-3.1 13.8-3.4l3.1-0.1-0.8-1.1c-1.3-1.8-4.4-4.7-6.4-5.8-11.9-7-27.2-1-31.3 12.3-2 6.4-0.7 13.7 3.2 19.1 0.4 0.6 0.9 1.1 1 1.1 0.1 0 0.5-1 0.9-2.2zm183.7 1.1c3.1-4.3 4.6-10 4-15.1-2.2-17.8-23-25.6-35.7-13.4-1 1-2.3 2.3-2.7 2.9l-0.8 1.1 3.1 0.1c4.8 0.2 10.1 1.5 13.8 3.4 7.5 3.8 13.8 11.4 16.6 19.9 0.4 1.2 0.8 2.2 0.9 2.2 0.1 0 0.5-0.5 1-1.1zm-184-73.8 0-9.1 8.6-14.9 8.6-14.9-2.3-0.1c-1.9-0.1-2.4 0-2.6 0.3-0.2 0.2-3.5 6.1-7.4 13-6 10.8-7.1 12.6-7.4 12.2-0.2-0.2-3.4-6.1-7.3-13l-7-12.6-2.5 0-2.5 0 0.6 1.1c0.3 0.6 4.2 7.3 8.6 14.9l8 13.9 0 9.1 0 9.1 2.1 0 2.1 0 0-9.1zm23 2.3 2.4-6.6 10.9-0.1 10.9-0.1 2.5 6.8 2.5 6.8 2.2 0c2 0 2.2 0 2-0.4-0.1-0.2-4.2-11-9.1-23.9l-8.9-23.5-2-0.1-2-0.1-9 23.7c-4.9 13-9 23.8-9.1 24-0.1 0.3 0.4 0.3 2.1 0.3l2.2-0.1zm3.9-10.7c0.1-0.2 2.2-5.9 4.7-12.7 2.5-6.7 4.6-12.3 4.7-12.4 0.1-0.2 9.5 24.9 9.5 25.4 0 0.1-4.3 0.2-9.5 0.2-9 0-9.5 0-9.4-0.4zm40.6 5.9 0-11.5 13.6 0 13.6 0 0 11.5 0 11.5 2.1 0 2.1 0 0-24 0-24-2.1 0-2.1 0 0 10.8 0 10.8-13.6 0-13.6 0 0-10.7 0-10.7-2.1 0-2.1 0 0 24 0 24 2.1 0 2.1 0zm46 4.8 2.4-6.6 10.9-0.1 10.9-0.1 2.5 6.8 2.5 6.8 2.2 0c2 0 2.2 0 2-0.4-0.1-0.2-4.2-11-9.1-23.9l-8.9-23.5-2-0.1-2-0.1-9 23.7c-4.9 13-9 23.8-9.1 24-0.1 0.3 0.4 0.3 2.1 0.3l2.2-0.1zm3.9-10.7c0.1-0.2 2.2-5.9 4.7-12.7 2.5-6.7 4.6-12.3 4.7-12.4 0.1-0.2 9.5 24.9 9.5 25.4 0 0.1-4.3 0.2-9.5 0.2-9 0-9.5 0-9.4-0.4zm54.2 7.3c2-5.5 6.1-16.3 8.9-23.9l5.2-13.9-2.3 0-2.3 0-6.9 19.2c-3.8 10.5-7.2 20.2-7.6 21.4l-0.8 2.2-7.2-20.1c-4-11-7.4-20.7-7.7-21.4l-0.5-1.3-2.3 0c-1.2 0-2.2 0.1-2.2 0.2 0 0.1 4.1 10.9 8.9 24l8.9 23.8 2-0.1 2-0.1zm26.2-13.9 0-24-2 0-2 0 0 24 0 24 2 0 2 0zM198.5 524c1.5-0.4 3.2-1.8 3.7-3 0.4-1 0.4-3 0.1-4-0.4-0.9-1.6-2.3-2.8-2.8-0.5-0.3-2.3-0.9-4.1-1.5-3.8-1.3-5.1-2.2-5.3-3.9-0.2-1.5 0.5-2.7 1.9-3.5 1-0.6 1.4-0.7 3.2-0.7 1.7 0 2.2 0.1 3.1 0.6 1.2 0.7 2.2 2.2 2.3 3.3 0 0.6 0.1 0.7 1 0.7 1.2 0 1.2-0.2 0.6-2.1-0.5-1.6-2.4-3.3-4.1-3.8-2.9-0.8-6.3-0.3-8 1.3-1.3 1.2-1.8 2.1-1.8 3.7 0 2.9 1.8 4.5 6.7 6 4 1.2 5.4 2.2 5.8 4 0.2 1.2-0.1 2.1-1.1 3.1-1.7 1.7-5.4 1.9-8 0.5-1.2-0.7-1.9-1.6-2.2-3.1-0.1-0.6-0.3-0.7-1-0.7-0.8 0-0.9 0.1-0.9 0.6 0 1.5 1.5 3.7 3.1 4.6 2.1 1.1 5.4 1.4 7.8 0.7zm-76.1-0.4c3.2-1.2 4.5-4.6 3-7.7-0.8-1.5-1.7-1.9-3-2.6 3.2-1.9 3.3-6.5 1.5-8.4-1.4-1.4-2.8-1.7-7.7-1.7l-4.1 0 0 21 4.5 0c3.9 0 4.7-0.1 5.9-0.5zm-8.3-9.5 3.1 0c3.7 0 4.8 0.3 6 1.5 0.9 0.9 0.9 1 0.9 2.6 0 1.9-0.6 3-2 3.8-0.7 0.4-1.4 0.5-4.4 0.6l-3.6 0.1zm0-9.6 3.3 0.1c3.7 0.1 4.6 0.4 5.4 1.8 0.7 1.1 0.7 3.3 0 4.3-0.8 1.3-2 1.7-5.6 1.8l-3.2 0.1c0-2.8 0-5.2 0-8.1zm17.9 13.7c3.2 0 6.3-0.1 9.5-0.1 0.7 2 1.4 4 2.2 6l1.8-0.1c0-0.1-1.8-5-3.9-10.7l-3.9-10.3c-0.6 0-1.2 0-1.8 0l-3.9 10.3c-2.2 5.7-3.9 10.5-3.9 10.6 0 0 1.2 0.1 1.9 0.1 0.7-2 1.3-3.8 2-5.9zm4.9-12.4c0.2 0.2 4 10.4 4 10.6l-8.2 0.2c1.4-3.6 2.8-7.2 4.3-10.8zm13.8 9.5 0.1-8.8 5.9 8.8 5.9 8.8 0.9 0 0.9 0 0-10.5 0-10.5-0.9 0-0.9 0 0 8.9 0 8.9-6-8.9-6-8.9-1 0-1 0 0 10.5 0 10.5 1 0 1 0zm28.1 8.3c1.4-0.4 1.9-0.8 3.1-1.9 2.2-2.2 2.6-3.5 2.6-8 0-3.2-0.1-3.8-0.6-5.1-0.8-1.9-2.5-3.8-4.2-4.6-1.4-0.7-1.6-0.7-5.7-0.8l-4.3-0.1 0 10.5 0 10.5 3.7 0c3.1 0 4-0.1 5.4-0.5zm-7.1-10 0-9.1 2.9 0.1c2 0.1 3.3 0.3 3.9 0.5 1.2 0.5 2.8 2 3.4 3.2 1.1 2 1.2 6.9 0.3 9.5-0.5 1.5-2.1 3.2-3.5 4-1 0.5-1.7 0.6-4.1 0.7l-2.9 0.1zm44 6.3 0-4.2 3.5 0c4 0 5.6-0.4 6.9-1.5 1.4-1.2 1.9-2.5 2-4.6 0-2.1-0.7-3.7-2.1-4.9-1.5-1.2-2.8-1.5-7.8-1.5l-4.5 0 0 10.5 0 10.5 1 0 1 0zm0-10.5 0-4.7 3.1 0c4.6 0 6.2 0.7 7.1 2.9 0.5 1.4 0.4 3.6-0.3 4.6-1.3 1.7-2.4 2.1-6.8 2.1l-3.1 0 0-4.7zm15.1 11.8 1-2.9 4.8-0.1 4.8-0.1 1.1 3 1.1 3 1 0c0.5 0 0.9-0.1 0.9-0.2 0-0.1-1.8-4.8-4-10.5l-3.9-10.3-0.9 0-0.9 0-3.9 10.3c-2.2 5.7-3.9 10.4-3.9 10.5 0 0.1 0.4 0.2 0.9 0.1l0.9 0 1-2.9zm2.1-5.7c0.3-0.7 1.2-3.1 2.1-5.5 0.9-2.4 1.7-4.2 1.8-4.1 0.2 0.2 4 10.4 4 10.6 0 0.1-1.9 0.2-4.1 0.2l-4.1 0zm17.5 4.3 0-4.4 3 0 3 0 2.5 4.3 2.5 4.3 1 0.1c0.6 0 1 0 1 0 0-0.1-1.1-2-2.5-4.4-1.4-2.3-2.5-4.4-2.5-4.5 0-0.1 0.2-0.3 0.5-0.4 0.9-0.3 2.5-1.9 3-3 0.6-1.4 0.6-3.9-0.1-5.3-0.3-0.6-0.9-1.4-1.4-1.8-1.5-1.2-2.8-1.5-7.7-1.5l-4.3 0 0 10.5 0 10.5 1 0 1 0zm0-10.5 0-4.7 3.4 0.1c2.9 0.1 3.6 0.2 4.5 0.7 3.5 1.8 2.8 7.3-1 8.3-0.6 0.2-2.4 0.3-4 0.3l-2.9 0zm22.8 5.2 0-9.7 3.6 0 3.6 0 0-0.7 0-0.7-8.1 0-8.1 0 0 0.8 0 0.8 3.5 0 3.5 0 0 9.8 0 9.8 1 0 1 0zm12.6 1 0.1-8.8 5.9 8.8 5.9 8.8 0.9 0 0.9 0 0-10.5 0-10.5-0.9 0-0.9 0 0 8.9 0 8.9-6-8.9-6-8.9-1 0-1 0 0 10.5 0 10.5 1 0 1 0zm32.2 8 0-0.7-5.6 0-5.6 0 0-4.2 0-4.2 4.9 0 4.9 0 0-0.7 0-0.7-4.9 0-4.9 0 0-4 0-4 5.6 0 5.6 0 0-0.7 0-0.7-6.6 0-6.6 0 0 10.5 0 10.5 6.6 0 6.6 0zm5.5-3.6 0-4.4 3 0 3 0 2.5 4.3 2.5 4.3 1 0.1c0.6 0 1 0 1 0 0-0.1-1.1-2-2.5-4.4-1.4-2.3-2.5-4.4-2.5-4.5 0-0.1 0.2-0.3 0.5-0.4 0.9-0.3 2.5-1.9 3-3 0.6-1.4 0.6-3.9-0.1-5.3-0.3-0.6-0.9-1.4-1.4-1.8-1.5-1.2-2.8-1.5-7.7-1.5l-4.3 0 0 10.5 0 10.5 1 0 1 0zm0-10.5 0-4.7 3.4 0.1c2.9 0.1 3.6 0.2 4.5 0.7 3.5 1.8 2.8 7.3-1 8.3-0.6 0.2-2.4 0.3-4 0.3l-2.9 0z" fill="#000"></path></g></svg>