<?xml version="1.0" encoding="utf-8"?>
<!-- Generator: Adobe Illustrator 16.0.0, SVG Export Plug-In . SVG Version: 6.00 Build 0)  -->
<!DOCTYPE svg PUBLIC "-//W3C//DTD SVG 1.1//EN" "http://www.w3.org/Graphics/SVG/1.1/DTD/svg11.dtd">
<svg version="1.1" id="Layer_1" xmlns="http://www.w3.org/2000/svg" xmlns:xlink="http://www.w3.org/1999/xlink" x="0px" y="0px"
	 width="1000px" height="1000px" viewBox="0 0 1000 1000" enable-background="new 0 0 1000 1000" xml:space="preserve">
<g opacity="0.7">
	<path fill="#FFFFFF" d="M531.45,176.722c-167.281,0-302.889,135.608-302.889,302.889S364.169,782.5,531.45,782.5
		c167.281,0,302.89-135.608,302.89-302.889S698.731,176.722,531.45,176.722 M531.45,759c-154.302,0-279.389-125.087-279.389-279.389
		c0-154.302,125.087-279.389,279.389-279.389c154.303,0,279.39,125.087,279.39,279.389C810.84,633.913,685.753,759,531.45,759"/>
	<path fill="#FFFFFF" d="M543.333,500.197l-0.458,149.734l-100.526,52.705c0,0,53.806,25.802,107.3,20.076
		c0,0,4.888-0.471,5.369-1.842s-3.439-3.993-3.439-3.993l-15.229-10.255c0,0,6.195-14.936,22.387-9.542l55.413,32.685
		c0,0,2.978,2.166,0.18,3.602s-120.364,35.41-205.272-20.701v-101.17l63.604-38.457c1.038,3.712,2.952,13.528,3.651,18.148
		c0.486,3.211,0.384,1.5,0.562,4.326c-15.575,7.919-30.74,20.587-46.314,28.506l0.021,58.637l88.613-54.032V499.999
		C521.931,499.074,540.666,499.246,543.333,500.197"/>
	<path fill="#FFFFFF" d="M551.767,483.045l132.846,67.846l-0.254,115.563c0,0,49.219-37.583,68.449-87.828
		c0,0,1.804-4.567,0.802-5.62c-1.002-1.052-5.121,1.246-5.121,1.246l-16.06,8.9c0,0-10.481-12.312,1.685-24.277l54.313-34.483
		c0,0,3.283-1.667,3.289,1.478c0.006,3.146-23.209,123.299-111.8,173.396l-90.1-46.015l0.128-72.434
		c3.779,0.764,7.942,1.822,12.375,3.3c3.081,1.028,5.926,2.137,8.523,3.264c-0.031,17.473-0.063,34.944-0.093,52.416l47.776,24.376
		l0.199-99.398l-118.113-60.321C541.031,501.597,549.707,484.988,551.767,483.045"/>
	<path fill="#FFFFFF" d="M545.26,455.757l125.722-75.646l100.2,62.262c0,0-5.281-61.701-37.345-104.902c0,0-2.885-3.974-4.311-3.694
		c-1.426,0.28-1.698,4.99-1.698,4.99l-1.114,18.326c0,0-16.015,2.234-19.576-14.456l0.069-64.334c0,0,0.355-3.664,3.012-1.981
		c2.656,1.683,91.559,85.781,86.257,187.416l-87.195,51.306l-61.03-30.98c1.869-2.806,4.36-6.072,7.625-9.407
		c3.159-3.228,6.267-5.727,8.959-7.626c14.723,9.408,29.612,13.722,44.336,23.129l46.217-27.219l-85.637-51.699l-112.42,65.421
		C555.146,474.773,545.793,458.538,545.26,455.757"/>
	<path fill="#FFFFFF" d="M516.5,458.499l0.14-148.914l101.341-55.546c0,0-56.67-24.971-109.957-17.567c0,0-4.87,0.624-5.31,2.009
		c-0.438,1.385,3.563,3.884,3.563,3.884l15.545,9.771c0,0-5.725,15.122-22.076,10.24l-56.412-30.929c0,0-3.045-2.07-0.293-3.593
		c2.751-1.523,122.37-38.605,208.998,14.812v100.552l-56.931,33.291c-1.508-1.812-3.242-4.262-4.733-7.384
		c-2.358-4.937-3.107-9.465-3.354-12.512l43.132-25.237l-0.144-54.452l-86.677,50.999v130.914
		C540.628,459.847,519.196,459.366,516.5,458.499"/>
	<path fill="#FFFFFF" d="M506.333,481.213L376.805,409.47l-0.16-115.97c0,0-49.016,40.746-68.358,90.949
		c0,0-1.814,4.563-0.815,5.618c1,1.054,5.124-1.235,5.124-1.235l16.079-8.864c0,0,10.455,12.334-1.738,24.273l-54.389,34.363
		c0,0-3.286,1.659-3.285-1.485c0.001-3.145,25.52-125.752,114.222-175.651l87.96,48.72l-0.279,66.229
		c-2.316,0.44-3.482,0.475-6.936,0.266c-5.46-0.329-11.28-1.921-14.064-3.183l0.316-49.905l-45.396-24.782l0.309,99.058
		l114.52,63.431C519.489,464.158,508.398,479.275,506.333,481.213"/>
	<path fill="#FFFFFF" d="M517.617,493.807l-125.451,76.061l-100.965-55.433c0,0,9.983,62.953,43.255,105.229
		c0,0,2.996,3.892,4.413,3.571c1.418-0.321,1.557-5.036,1.557-5.036l0.596-18.351c0,0,15.944-2.686,19.977,13.896l1.75,64.312
		c0,0-0.253,3.673-2.955,2.064c-2.703-1.606-95.06-86.188-92.633-187.933l86.822-50.72l58.801,32.218
		c-0.805,2.216-3.383,5.096-5.327,7.958c-3.073,4.526-5.657,7.34-8.164,9.088l-44.496-24.393L310.3,492.701l88.971,49.161
		l109.146-66.563C510.653,477.125,517.007,491.042,517.617,493.807"/>
	<path fill="#FFFFFF" d="M531.451,447.721c-17.383,0-31.474,14.091-31.474,31.473s14.091,31.473,31.474,31.473
		c17.382,0,31.473-14.091,31.473-31.473S548.833,447.721,531.451,447.721z M531.45,493.002c-7.627,0-13.809-6.182-13.809-13.809
		s6.182-13.809,13.809-13.809s13.81,6.182,13.81,13.809S539.077,493.002,531.45,493.002z"/>
</g>
<path opacity="0.7" fill="#FFFFFF" d="M367.571,415.613L368,321.055c0,0-30.88,19.465-34.007,38.114l12.174,0.164l-0.196,27.168
	l-0.123,17.143l-77.861,46.337c-0.562,6.968-1.11,16.155-1.184,26.021l80.45-48.592l92.414,50.815l-43.394,26.729l-40.386-23.044
	c0,0-15.06,2.871-20.117,10.608l60.865,34.58l82.473-50.191L367.571,415.613z"/>
<path opacity="0.7" fill="#FFFFFF" d="M715.445,556.548l78.507-42.229c1.336-8.77,2.032-17.926,2.376-26.01l-81.194,43.871
	l-98.706-50.35l51.218-30.611L713.863,475c0,0,15.575-3.353,20.997-10.839l-66.677-34.264l-91.037,53.93l116.885,59.782
	l0.006,92.393c0,0,27.05-16.548,31.067-35.024l-10.795-1.734L715.445,556.548z"/>
<path opacity="0.7" fill="#FFFFFF" d="M735.027,370.565l-6.7,8.64l-36.9-23.584l0.627-90.415
	c-6.456-3.87-14.028-8.323-21.698-12.648l-0.474,93.746l-91.729,53.765v-52.359l41.082-24.06c0,0,5.04-12.738,1.074-21.087
	l-60.934,35.813v92.436l110.375-64.945l81.125,51.865C750.875,417.731,749.312,382.956,735.027,370.565z"/>
<path opacity="0.7" fill="#FFFFFF" d="M584.516,259.832c0,0-31.178-15.482-48.938-8.991l4.311,10.048l-37.128,22.226l-78.566-44.714
	c-6.822,3.476-14.849,7.694-22.681,12.118l81.277,45.556l-0.165,104.769l-43.05-23.845l0.092-46.499c0,0-9.935-11.677-19.161-12.253
	l-0.006,70.002l82.672,45.441l-0.09-125.773L584.516,259.832z"/>
<path opacity="0.7" fill="#FFFFFF" d="M392.243,582.874l-81.243-44c0,0,1.666,31.667,16,44l6.666-8.666l37,21.333l-0.261,94.408
	c5.525,4.646,12.885,10.198,21.319,14.967l0.519-98.042l93.09-56.961v57.489l-42.208,25.588c0,0-4,21.135,0,29.468l63.208-38.221
	V513.49L392.243,582.874z"/>
<path opacity="0.7" fill="#FFFFFF" d="M635.383,722.203c7.068-2.954,15.7-6.928,25.588-12.168l-87.777-44.66l0.428-108.299
	l46.183,23.629l-0.021,47.402c0,0,11.577,10.945,20.817,11.179l0.182-71.437l-88.754-45.41l0.252,135.62l-76.53,38.839
	c0,0,29.016,18.903,46.524,11.761l-4.679-9.883l36.105-18.339L635.383,722.203z"/>
</svg>
