<?xml version="1.0" encoding="UTF-8" standalone="no"?>
<!-- Generator: Adobe Illustrator 16.0.0, SVG Export Plug-In . SVG Version: 6.00 Build 0)  -->

<svg
   xmlns:svg="http://www.w3.org/2000/svg"
   xmlns="http://www.w3.org/2000/svg"
   xmlns:xlink="http://www.w3.org/1999/xlink"
   id="loaderSvg"
   x="0px"
   y="0px"
   width="484.85556"
   height="484.85556"
   viewBox="0 0 484.85556 484.85556">
  <circle
     cx="242.42778"
     cy="242.42778"
     r="242.42778"
     id="circle3"
     style="fill:#fbb040" /><circle
     stroke-miterlimit="10"
     cx="243.14458"
     cy="242.5941"
     r="231.13037"
     id="circle5"
     style="fill:none;stroke:#ffffff;stroke-width:1.72286844;stroke-miterlimit:10" /><image
     y="-451.1524"
     x="-518.4754"
     style="display:none;overflow:visible"
     id="image7"
     height="1156"
     width="1300"
     overflow="visible"
     display="none" /><g
     display="none"
     id="g9"
     style="display:none"
     transform="translate(-367.47542,-373.15242)"><path
       display="inline"
       d="m 590.912,360.937 c 0,5.523 -6.316,16 -10.98,16 l -5.914,0 c -4.664,0 -10.98,-10.477 -10.98,-16 l 5.068,-83 c 1.781,-7.5 8.447,-10 8.447,-10 0,0 10.137,2.5 10.137,10 l 4.222,83 z"
       id="path11"
       inkscape:connector-curvature="0"
       style="display:inline;fill:#29303a" /><circle
       display="inline"
       cx="576.97498"
       cy="254.937"
       r="17.5"
       id="circle13"
       style="display:inline;fill:#29303a" /><circle
       display="inline"
       cx="576.97498"
       cy="385.93701"
       r="15"
       id="circle15"
       style="display:inline;fill:#29303a" /></g><g
     display="none"
     id="g17"
     style="display:none"
     transform="translate(-367.47542,-373.15242)"><path
       display="inline"
       d="m 590.912,473.437 c 0,-5.523 -6.316,-16 -10.98,-16 l -5.914,0 c -4.664,0 -10.98,10.477 -10.98,16 l 5.068,83 c 1.781,7.5 8.447,10 8.447,10 0,0 10.137,-2.5 10.137,-10 l 4.222,-83 z"
       id="path19"
       inkscape:connector-curvature="0"
       style="display:inline;fill:#29303a" /><circle
       display="inline"
       cx="576.97498"
       cy="579.43799"
       r="17.5"
       id="circle21"
       style="display:inline;fill:#29303a" /><circle
       display="inline"
       cx="576.97498"
       cy="448.43701"
       r="15"
       id="circle23"
       style="display:inline;fill:#29303a" /></g><g
     id="g25"
     transform="matrix(0.69591168,0,0,0.69591168,-108.29152,-110.7441)"><path
       d="m 445.828,459.926 c 0,0 59.356,33.368 117.911,-0.161 0,0 -22.299,39.083 -58.647,38.983 -10e-4,0 -32.153,4.011 -59.264,-38.822 z"
       id="path27"
       inkscape:connector-curvature="0"
       style="fill:#ffffff" /><path
       d="m 571.41,593.183 c -10.052,-9.625 -23.748,-10.195 -31.015,-12.405 -7.983,-2.427 -23.907,-12.14 -28.662,-17.535 0,0 -4.739,-5.289 -7.486,-7.783 0,0 -0.213,-0.379 -0.321,-0.285 -0.107,-0.094 -0.321,0.285 -0.321,0.285 -2.747,2.494 -7.486,7.783 -7.486,7.783 -4.755,5.396 -20.678,15.108 -28.662,17.535 -7.267,2.21 -20.962,2.78 -31.015,12.405 -10.054,9.626 -8.823,27.808 -8.823,27.808 l 75.986,0 0.643,0 75.987,0 c -10e-4,-10e-4 1.23,-18.182 -8.825,-27.808 z"
       id="path29"
       inkscape:connector-curvature="0"
       style="fill:#ffffff" /><g
       id="hourGlassInner"
       inkscape:label="#g3498"
       transform="translate(0,-5.0375322)"><g
         id="g33"><path
           d="m 601.65,377.428 c 0,3.544 -6.082,6.417 -9.625,6.417 l -173.577,0 c -3.544,0 -10.909,-2.873 -10.909,-6.417 l 0,-1.283 c 0,-3.544 7.365,-6.417 10.909,-6.417 l 173.577,0 c 3.543,0 9.625,2.873 9.625,6.417 l 0,1.283 z"
           id="path35"
           inkscape:connector-curvature="0"
           style="fill:#29303a" /><path
           d="m 594.872,391.502 c 0,3.302 -5.666,5.979 -8.968,5.979 l -161.742,0 c -3.303,0 -10.165,-2.677 -10.165,-5.979 l 0,-1.196 c 0,-3.302 6.862,-5.979 10.165,-5.979 l 161.743,0 c 3.302,0 8.968,2.677 8.968,5.979 l 0,1.196 z"
           id="path37"
           inkscape:connector-curvature="0"
           style="fill:#29303a" /></g><g
         id="g39"><path
           d="m 601.65,641.323 c 0,-3.545 -6.082,-6.417 -9.625,-6.417 l -173.577,0 c -3.544,0 -10.909,2.872 -10.909,6.417 l 0,1.283 c 0,3.545 7.365,6.417 10.909,6.417 l 173.577,0 c 3.543,0 9.625,-2.872 9.625,-6.417 l 0,-1.283 z"
           id="path41"
           inkscape:connector-curvature="0"
           style="fill:#29303a" /><path
           d="m 594.872,627.25 c 0,-3.303 -5.666,-5.979 -8.968,-5.979 l -161.742,0 c -3.303,0 -10.165,2.677 -10.165,5.979 l 0,1.195 c 0,3.303 6.862,5.98 10.165,5.98 l 161.743,0 c 3.302,0 8.968,-2.678 8.968,-5.98 l 0,-1.195 z"
           id="path43"
           inkscape:connector-curvature="0"
           style="fill:#29303a" /></g><g
         id="g45"><g
           id="g47"><g
             id="g49"><g
               id="g51"><path
                 d="m 428.889,473.36 c 0,3.544 -4.694,8.342 -7.688,8.342 l -1.869,0 c -2.994,0 -7.688,-4.797 -7.688,-8.342 l 3.252,-53.26 c 1.143,-4.813 5.42,-6.417 5.42,-6.417 0,0 5.221,1.604 5.221,6.417 l 3.352,53.26 z"
                 id="path53"
                 inkscape:connector-curvature="0"
                 style="fill:#29303a" /></g><circle
               cx="420.34698"
               cy="405.10101"
               r="10.026"
               id="circle55"
               style="fill:#29303a" /><g
               id="g57"><circle
                 cx="420.668"
                 cy="489.40302"
                 r="9.7060003"
                 id="circle59"
                 style="fill:#29303a" /></g></g></g><g
           id="g61"><g
             id="g63"><g
               id="g65"><path
                 d="m 428.568,545.631 c 0,-3.543 -4.694,-8.342 -7.688,-8.342 l -1.869,0 c -2.993,0 -7.688,4.799 -7.688,8.342 l 3.252,53.261 c 1.143,4.813 5.42,6.417 5.42,6.417 0,0 5.221,-1.604 5.221,-6.417 l 3.352,-53.261 z"
                 id="path67"
                 inkscape:connector-curvature="0"
                 style="fill:#29303a" /></g><circle
               cx="420.026"
               cy="613.89203"
               r="10.026"
               id="circle69"
               style="fill:#29303a" /><g
               id="g71"><circle
                 cx="420.34698"
                 cy="529.59003"
                 r="9.7060003"
                 id="circle73"
                 style="fill:#29303a" /></g></g></g><circle
           cx="419.94601"
           cy="509.61499"
           r="13.595"
           id="circle75"
           style="fill:#29303a" /></g><g
         id="g77"><g
           id="g79"><g
             id="g81"><g
               id="g83"><path
                 d="m 579.111,474.122 c 0,3.545 4.695,8.342 7.688,8.342 l 1.869,0 c 2.993,0 7.688,-4.797 7.688,-8.342 l -3.252,-53.26 c -1.144,-4.813 -5.421,-6.417 -5.421,-6.417 0,0 -5.22,1.604 -5.22,6.417 l -3.352,53.26 z"
                 id="path85"
                 inkscape:connector-curvature="0"
                 style="fill:#29303a" /></g><circle
               cx="587.65302"
               cy="405.86301"
               r="10.026"
               id="circle87"
               style="fill:#29303a" /><g
               id="g89"><circle
                 cx="587.33301"
                 cy="490.16501"
                 r="9.7060003"
                 id="circle91"
                 style="fill:#29303a" /></g></g></g><g
           id="g93"><g
             id="g95"><g
               id="g97"><path
                 d="m 579.432,546.393 c 0,-3.544 4.695,-8.342 7.689,-8.342 l 1.868,0 c 2.993,0 7.688,4.798 7.688,8.342 l -3.252,53.261 c -1.143,4.813 -5.42,6.417 -5.42,6.417 0,0 -5.221,-1.604 -5.221,-6.417 l -3.352,-53.261 z"
                 id="path99"
                 inkscape:connector-curvature="0"
                 style="fill:#29303a" /></g><circle
               cx="587.97498"
               cy="614.65302"
               r="10.026"
               id="circle101"
               style="fill:#29303a" /><g
               id="g103"><circle
                 cx="587.65399"
                 cy="530.35101"
                 r="9.7060003"
                 id="circle105"
                 style="fill:#29303a" /></g></g></g><circle
           cx="588.05499"
           cy="509.73599"
           r="13.595"
           id="circle107"
           style="fill:#29303a" /></g><g
         id="g109"><path
           d="m 580.061,409.803 c -4.942,45.096 -34.634,88.192 -75.806,88.477 -44.516,0.306 -70.714,-50.586 -76.059,-94.487 -3.225,57.297 26.168,114.932 75.484,114.593 46.92,-0.322 78.933,-56.253 76.394,-107.376 0,-0.404 -0.009,-0.804 -0.013,-1.207 z"
           id="path111"
           inkscape:connector-curvature="0"
           style="fill:#29303a" /><path
           d="m 580.061,610.555 c -4.942,-45.095 -34.634,-88.192 -75.806,-88.477 -44.516,-0.307 -70.714,50.587 -76.059,94.487 -3.225,-57.298 26.168,-114.934 75.484,-114.593 46.92,0.322 78.933,56.252 76.394,107.375 0,0.404 -0.009,0.805 -0.013,1.208 z"
           id="path113"
           inkscape:connector-curvature="0"
           style="fill:#29303a" /></g></g></g><g
     id="g115"
     transform="matrix(0.69591168,0,0,0.69591168,-63.348292,-97.261134)"><path
       d="m 505.639,525.484 c 0,0.942 -0.77,1.711 -1.712,1.711 -0.945,0 -1.712,-0.769 -1.712,-1.711 0,-0.947 0.767,-1.712 1.712,-1.712 0.942,0 1.712,0.765 1.712,1.712 z"
       id="path117"
       inkscape:connector-curvature="0"
       style="fill:#ffffff" /><path
       d="m 505.639,541.906 c 0,0.941 -0.77,1.712 -1.712,1.712 -0.945,0 -1.712,-0.771 -1.712,-1.712 0,-0.945 0.767,-1.712 1.712,-1.712 0.942,0 1.712,0.767 1.712,1.712 z"
       id="path119"
       inkscape:connector-curvature="0"
       style="fill:#ffffff" /><path
       d="m 505.639,550.117 c 0,0.941 -0.77,1.713 -1.712,1.713 -0.945,0 -1.712,-0.771 -1.712,-1.713 0,-0.945 0.767,-1.712 1.712,-1.712 0.942,0 1.712,0.767 1.712,1.712 z"
       id="path121"
       inkscape:connector-curvature="0"
       style="fill:#ffffff" /><path
       d="m 505.639,533.695 c 0,0.942 -0.77,1.711 -1.712,1.711 -0.945,0 -1.712,-0.769 -1.712,-1.711 0,-0.947 0.767,-1.713 1.712,-1.713 0.942,0 1.712,0.766 1.712,1.713 z"
       id="path123"
       inkscape:connector-curvature="0"
       style="fill:#ffffff" /></g></svg>
