<svg xmlns:svg="http://www.w3.org/2000/svg" xmlns="http://www.w3.org/2000/svg" version="1.1" xml:space="preserve" width="135.18" height="40.75" viewBox="0 0 135.18 40.75"><defs><clipPath clipPathUnits="userSpaceOnUse"><path d="m0 121.98 119.21 0L119.21 0 0 0 0 121.98Z"></path></clipPath></defs><g transform="matrix(1.25,0,0,-1.25,-6.9151875,96.60925)"><g clip-path="url(#clipPath16)"><g transform="translate(33.3564,49.4619)"><path d="m0 0c-6.36-6.37-16.69-6.36-23.05 0-6.37 6.37-6.37 16.69 0 23.05 6.37 6.37 16.69 6.37 23.05 0C6.36 16.69 6.36 6.37 0 0" fill="#fff"></path></g><g transform="translate(34.6846,69.3198)"><path d="m0 0c0.31-1 0.48-2.06 0.48-3.17 0-3.56-1.75-6.69-4.41-8.65-4.62-3.4-11.37-3.41-20.67-6.34 2.81-3.36 7.03-5.49 11.75-5.49 8.46 0 15.32 6.86 15.32 15.32C2.47-5.26 1.56-2.4 0 0" fill="#205598"></path></g><g transform="translate(31.0205,73.2476)"><path d="m0 0c-2.56 1.92-5.74 3.06-9.19 3.06-8.46 0-15.32-6.86-15.32-15.32 0-3.4 1.11-6.55 2.99-9.09C-11.21-18.35-3.08-10.27 0 0" fill="#ed1737"></path></g><g transform="translate(72.2354,61.9331)"><path d="m0 0c-0.36-0.12-0.86-0.21-1.49-0.3-0.3-0.04-0.63-0.06-1.01-0.06-0.65 0-1.35 0.05-2.03 0.11l-0.03 0c-0.63 0.05-1.23 0.09-1.8 0.09-0.41 0-0.78-0.02-1.14-0.07-1.07-0.13-1.91-0.46-1.91-0.46l0.01 0.08c0.21 2.14 2.01 3.97 4.19 4.26 0.2 0.02 0.4 0.03 0.61 0.03 2.05 0 4.04-1.55 4.63-3.62L0.06 0.01 0 0ZM2.51-0.91 2.51-0.88C2.5-0.74 2.48-0.52 2.45-0.28 2.39 0.16 2.29 0.58 2.16 1 1.17 4.12-1.48 6.14-4.59 6.14c-0.31 0-0.63-0.03-0.95-0.06-3.99-0.52-6.7-4.14-6.18-8.24 0.48-3.71 3.47-6.26 7.11-6.26 0.31 0 0.63 0.02 0.95 0.06 1.94 0.25 3.64 1.06 4.92 2.64 0.07 0.09 0.11 0.21 0.09 0.31-0.01 0.09-0.06 0.17-0.16 0.25-0.21 0.15-0.98 0.52-1.39 0.73-0.12 0.06-0.22 0.11-0.28 0.13-0.12 0.06-0.21 0.09-0.29 0.09-0.1 0-0.2-0.05-0.29-0.16-0.82-0.96-1.87-1.46-2.93-1.6-0.21-0.03-0.42-0.04-0.61-0.04-1.94 0-3.9 1.3-4.46 3.08l-0.01 0.05 0.04 0.02c0.1 0.05 1.01 0.47 2.35 0.47 0.17 0 0.34-0.01 0.5-0.02 0.39-0.03 0.78-0.08 1.19-0.13 0.75-0.1 1.54-0.2 2.45-0.2 0.56 0 1.12 0.04 1.68 0.12 2.22 0.43 3.1 1.05 3.11 1.06 0.31 0.2 0.3 0.37 0.28 0.67" fill="#205598"></path></g><g transform="translate(109.5225,67.2554)"><path d="m0 0c0 0.18-0.15 0.33-0.34 0.33l-1.84 0C-2.36 0.33-2.51 0.18-2.51 0l0-13.07c0-0.19 0.15-0.34 0.33-0.34l1.84 0c0.18 0 0.34 0.15 0.34 0.34L0 0Z" fill="#205598"></path></g><g transform="translate(108.2666,72.2456)"><path d="m0 0c-0.91 0-1.66-0.74-1.66-1.65 0-0.91 0.75-1.66 1.66-1.66 0.92 0 1.66 0.74 1.66 1.66C1.66-0.74 0.92 0 0 0" fill="#205598"></path></g><g transform="translate(83.9482,65.5913)"><path d="m0 0c2.6 0 4.64-2.14 4.64-4.88 0-2.75-1.94-4.83-4.5-4.83-1.3 0-2.5 0.46-3.38 1.31-0.91 0.86-1.4 2.09-1.4 3.44C-4.64-2.23-2.56 0 0 0m-0.08-12.09c0.11 0 0.23-0.01 0.35-0.01 1.89 0 3.65 0.73 4.94 2.04 1.32 1.34 2.05 3.18 2.05 5.18 0 4.13-3.18 7.36-7.23 7.36-3.3 0-6.09-2.18-6.94-5.41-0.14-0.55-0.29-1.95-0.29-3.35l0-10.25c0-0.18 0.15-0.34 0.34-0.34l1.82 0c0.19 0 0.34 0.15 0.34 0.34l0 6.46 0.1-0.09c0.89-0.87 2.55-1.83 4.53-1.93" fill="#205598"></path></g><g transform="translate(51.2021,65.5913)"><path d="m0 0c2.6 0 4.64-2.14 4.64-4.88 0-2.75-1.94-4.83-4.5-4.83-1.3 0-2.5 0.46-3.37 1.31-0.91 0.86-1.41 2.09-1.41 3.44C-4.65-2.23-2.56 0 0 0m-0.08-12.09c0.11 0 0.24-0.01 0.35-0.01 1.89 0 3.65 0.73 4.95 2.04 1.32 1.34 2.05 3.18 2.05 5.18 0 4.13-3.18 7.36-7.24 7.36-3.3 0-6.09-2.18-6.94-5.41-0.15-0.55-0.29-1.95-0.29-3.35l0-10.25c0-0.18 0.15-0.34 0.33-0.34l1.83 0c0.19 0 0.34 0.15 0.34 0.34l0 6.46 0.09-0.09c0.89-0.87 2.55-1.83 4.54-1.93" fill="#205598"></path></g><g transform="translate(92.9658,55.791)"><path d="m0 0c1.59-1.45 3.32-2.28 5.57-2.28l0.07 0c3.88 0.03 5.62 2.15 5.62 4.24 0 2.89-2.73 3.68-3.56 3.86C7.43 5.87 7.15 5.93 6.86 5.98 6.19 6.11 5.49 6.25 4.85 6.43 4.4 6.54 2.94 7.03 2.94 8.12c0 1.2 1.33 1.85 2.58 1.85 1.05 0 1.92-0.18 3.05-1.05 0.09-0.07 0.21-0.15 0.36-0.15 0.11 0 0.22 0.04 0.33 0.12 0.31 0.23 0.88 0.71 1.25 1.08 0.09 0.09 0.13 0.19 0.12 0.3-0.01 0.16-0.12 0.29-0.19 0.34-1.5 1.19-2.94 1.67-4.97 1.68l-0.01 0C2.55 12.28 0.36 10.41 0.36 7.93 0.36 5.96 1.97 4.57 4.9 3.99L6.73 3.64C7.94 3.42 8.62 2.78 8.59 1.89 8.57 1.01 7.5 0.1 5.74 0.1 4.31 0.1 3.04 0.66 1.98 1.63L1.96 1.65C1.89 1.71 1.8 1.8 1.68 1.8 1.6 1.8 1.51 1.76 1.41 1.68 1.3 1.59 0.08 0.62-0.06 0.48-0.12 0.42-0.15 0.35-0.14 0.28-0.14 0.17-0.06 0.07 0 0" fill="#205598"></path></g><g transform="translate(111.8584,66.0269)"><path d="m0 0 0.32 0c0.09 0 0.15 0.01 0.19 0.04 0.05 0.03 0.07 0.09 0.07 0.18 0 0.13-0.11 0.19-0.32 0.19L0 0.4 0 0Zm0-0.28 0-0.7-0.36 0 0 1.68 0.63 0c0.23 0 0.4-0.04 0.51-0.11 0.12-0.08 0.18-0.21 0.18-0.4 0-0.27-0.13-0.42-0.4-0.44l0.43-0.73-0.42 0-0.39 0.71-0.17 0zm1.37 0.13C1.37 0.2 1.26 0.49 1.05 0.71 0.83 0.93 0.57 1.04 0.26 1.04-0.06 1.04-0.32 0.93-0.53 0.71-0.75 0.49-0.86 0.2-0.86-0.15c0-0.35 0.11-0.64 0.32-0.86 0.21-0.22 0.48-0.34 0.8-0.33 0.31 0 0.57 0.11 0.79 0.34 0.22 0.22 0.33 0.51 0.33 0.86m0.45 0C1.82-0.63 1.66-1.01 1.35-1.3 1.06-1.57 0.69-1.71 0.26-1.71c-0.43 0-0.8 0.14-1.09 0.41-0.32 0.29-0.47 0.67-0.47 1.15 0 0.47 0.16 0.86 0.48 1.15 0.3 0.27 0.66 0.41 1.09 0.41 0.43 0 0.8-0.14 1.09-0.41C1.66 0.71 1.82 0.32 1.82-0.15" fill="#205598"></path></g></g></g></svg>