<?xml version="1.0" encoding="utf-8"?>
<!-- Generator: Adobe Illustrator 16.0.0, SVG Export Plug-In . SVG Version: 6.00 Build 0)  -->
<!DOCTYPE svg PUBLIC "-//W3C//DTD SVG 1.1//EN" "http://www.w3.org/Graphics/SVG/1.1/DTD/svg11.dtd">
<svg version="1.1" id="Layer_1" xmlns="http://www.w3.org/2000/svg" xmlns:xlink="http://www.w3.org/1999/xlink" x="0px" y="0px"
	 width="446.006px" height="446.006px" viewBox="0 0 446.006 446.006" enable-background="new 0 0 446.006 446.006"
	 xml:space="preserve">
<g opacity="0.7">
	<g>
		<path fill="#FFFFFF" d="M180.841,171.379c0,0,43.987,24.727,87.377-0.119c0,0-16.523,28.962-43.46,28.888
			C224.759,200.148,200.933,203.121,180.841,171.379z"/>
		<path fill="#FFFFFF" d="M273.905,270.13c-7.449-7.133-17.6-7.556-22.983-9.192c-5.917-1.799-17.717-8.997-21.24-12.995
			c0,0-3.513-3.92-5.549-5.768c0,0-0.157-0.281-0.238-0.212c-0.08-0.069-0.238,0.212-0.238,0.212
			c-2.036,1.848-5.547,5.768-5.547,5.768c-3.524,3.998-15.324,11.196-21.24,12.995c-5.385,1.637-15.534,2.06-22.983,9.192
			c-7.451,7.133-6.539,20.606-6.539,20.606h56.31h0.476h56.311C280.443,290.736,281.355,277.263,273.905,270.13z"/>
		<g>
			<g>
				<path fill="#F7941E" d="M296.313,110.244c0,2.626-4.506,4.755-7.132,4.755h-128.63c-2.626,0-8.084-2.129-8.084-4.755v-0.951
					c0-2.626,5.458-4.755,8.084-4.755h128.63c2.626,0,7.132,2.129,7.132,4.755V110.244z"/>
				<path fill="#F7941E" d="M291.292,120.673c0,2.447-4.199,4.431-6.646,4.431h-119.86c-2.447,0-7.533-1.984-7.533-4.431v-0.886
					c0-2.447,5.085-4.431,7.533-4.431h119.86c2.447,0,6.646,1.983,6.646,4.431V120.673z"/>
			</g>
			<g>
				<path fill="#F7941E" d="M296.313,305.805c0-2.628-4.506-4.756-7.132-4.756h-128.63c-2.626,0-8.084,2.128-8.084,4.756v0.951
					c0,2.626,5.458,4.755,8.084,4.755h128.63c2.626,0,7.132-2.129,7.132-4.755V305.805z"/>
				<path fill="#F7941E" d="M291.292,295.375c0-2.447-4.199-4.432-6.646-4.432h-119.86c-2.447,0-7.533,1.984-7.533,4.432v0.886
					c0,2.447,5.085,4.432,7.533,4.432h119.86c2.447,0,6.646-1.984,6.646-4.432V295.375z"/>
			</g>
			<g>
				<g>
					<g>
						<g>
							<path fill="#F7941E" d="M168.289,181.335c0,2.626-3.479,6.182-5.697,6.182h-1.385c-2.218,0-5.697-3.555-5.697-6.182
								l2.41-39.468c0.847-3.566,4.017-4.755,4.017-4.755s3.869,1.188,3.869,4.755L168.289,181.335z"/>
						</g>
						<circle fill="#F7941E" cx="161.959" cy="130.751" r="7.43"/>
						<g>
							<circle fill="#F7941E" cx="162.197" cy="193.223" r="7.192"/>
						</g>
					</g>
				</g>
				<g>
					<g>
						<g>
							<path fill="#F7941E" d="M168.052,234.891c0-2.625-3.479-6.182-5.698-6.182h-1.385c-2.218,0-5.697,3.557-5.697,6.182
								l2.41,39.47c0.847,3.566,4.017,4.755,4.017,4.755s3.869-1.188,3.869-4.755L168.052,234.891z"/>
						</g>
						<circle fill="#F7941E" cx="161.721" cy="285.476" r="7.43"/>
						<g>
							<circle fill="#F7941E" cx="161.959" cy="223.004" r="7.192"/>
						</g>
					</g>
				</g>
				<circle fill="#F7941E" cx="161.661" cy="208.202" r="10.075"/>
			</g>
			<g>
				<g>
					<g>
						<g>
							<path fill="#F7941E" d="M279.611,181.899c0,2.627,3.479,6.182,5.698,6.182h1.384c2.219,0,5.698-3.555,5.698-6.182
								l-2.41-39.468c-0.848-3.566-4.018-4.755-4.018-4.755s-3.868,1.188-3.868,4.755L279.611,181.899z"/>
						</g>
						<circle fill="#F7941E" cx="285.942" cy="131.316" r="7.43"/>
						<g>
							<circle fill="#F7941E" cx="285.704" cy="193.788" r="7.192"/>
						</g>
					</g>
				</g>
				<g>
					<g>
						<g>
							<path fill="#F7941E" d="M279.85,235.455c0-2.626,3.479-6.181,5.697-6.181h1.385c2.218,0,5.697,3.555,5.697,6.181l-2.41,39.47
								c-0.847,3.566-4.018,4.755-4.018,4.755s-3.868-1.188-3.868-4.755L279.85,235.455z"/>
						</g>
						<circle fill="#F7941E" cx="286.18" cy="286.041" r="7.431"/>
						<g>
							<circle fill="#F7941E" cx="285.942" cy="223.567" r="7.193"/>
						</g>
					</g>
				</g>
				<circle fill="#F7941E" cx="286.239" cy="208.291" r="10.075"/>
			</g>
			<g>
				<path fill="#F7941E" d="M280.315,134.236c-3.663,33.418-25.666,65.355-56.176,65.566c-32.988,0.227-52.403-37.487-56.363-70.021
					c-2.39,42.461,19.392,85.171,55.937,84.92c34.771-0.239,58.494-41.687,56.612-79.571
					C280.325,134.831,280.319,134.534,280.315,134.236z"/>
				<path fill="#F7941E" d="M280.315,283.003c-3.663-33.417-25.666-65.355-56.176-65.565c-32.988-0.228-52.403,37.488-56.363,70.02
					c-2.39-42.46,19.392-85.171,55.937-84.919c34.771,0.24,58.494,41.687,56.612,79.572
					C280.325,282.407,280.319,282.705,280.315,283.003z"/>
			</g>
		</g>
	</g>
	<g>
		<circle fill="#FFFFFF" cx="224.272" cy="221.068" r="1.268"/>
		<path fill="#FFFFFF" d="M225.54,233.238c0,0.697-0.569,1.27-1.268,1.27c-0.702,0-1.269-0.572-1.269-1.27
			c0-0.701,0.567-1.269,1.269-1.269C224.971,231.97,225.54,232.537,225.54,233.238z"/>
		<circle fill="#FFFFFF" cx="224.272" cy="239.322" r="1.268"/>
		<circle fill="#FFFFFF" cx="224.272" cy="227.153" r="1.268"/>
	</g>
</g>
<circle opacity="0.7" fill="none" stroke="#FFFFFF" stroke-width="5" stroke-miterlimit="10" cx="223.003" cy="223.003" r="220.503"/>
</svg>
